<svg data-name="Layer 1" xmlns="http://www.w3.org/2000/svg" width="808.14938" height="589.44401" viewBox="0 0 808.14938 589.44401" xmlns:xlink="http://www.w3.org/1999/xlink"><path d="M1010.64622,651.37416c-2.71155-20.47851-15.57545-40.57509-35.17783-47.09113a95.1759,95.1759,0,0,1,.51268,65.34266c-2.93967,8.14954-7.05786,16.9077-4.16734,25.07485,1.79845,5.08184,6.13028,8.94647,10.95718,11.34616,4.8272,2.39969,10.17216,3.51931,15.45016,4.61623l1.04376.84941C1007.47971,692.55879,1013.35776,671.85268,1010.64622,651.37416Z" transform="translate(-223.31656 -125.21687)" fill="#f0f0f0"/><path d="M975.27746,604.67216a81.3498,81.3498,0,0,1,20.58531,45.62207,35.03206,35.03206,0,0,1-.31163,10.97177,20.09236,20.09236,0,0,1-4.92329,9.35855c-2.23269,2.49243-4.80513,4.78336-6.39308,7.77513a12.30262,12.30262,0,0,0-.5215,10.04784c1.45513,4.06963,4.28576,7.3737,7.16617,10.5086,3.19815,3.48072,6.57517,7.04542,7.95963,11.68254.16774.56185,1.02974.26871.86224-.29229-2.40871-8.06779-10.29479-12.59884-14.096-19.85247-1.7737-3.38468-2.53814-7.32439-.92895-10.92483,1.40716-3.14843,4.05786-5.51313,6.34032-8.01723a21.44009,21.44009,0,0,0,5.15486-8.97129,32.38605,32.38605,0,0,0,.7323-10.91931A78.92362,78.92362,0,0,0,990.95,627.72335a82.79233,82.79233,0,0,0-15.07556-23.73876c-.39271-.43281-.98715.2576-.597.68757Z" transform="translate(-223.31656 -125.21687)" fill="#fff"/><path d="M995.57408,644.78666a12.20505,12.20505,0,0,0,9.18894-12.8584c-.051-.58356-.96023-.53171-.90915.05262a11.30163,11.30163,0,0,1-8.57208,11.94354c-.56886.14-.27332,1.00146.29229.86224Z" transform="translate(-223.31656 -125.21687)" fill="#fff"/><path d="M991.92636,669.50988a23.52422,23.52422,0,0,1-10.61193-13.46464c-.16973-.56124-1.03178-.26827-.86225.29229a24.46878,24.46878,0,0,0,11.07116,13.98874c.50721.29546.90748-.52253.403-.81639Z" transform="translate(-223.31656 -125.21687)" fill="#fff"/><path d="M986.47747,619.87779a6.90865,6.90865,0,0,1-6.5495-.2805c-.50321-.30174-.90295.5166-.403.81638a7.74171,7.74171,0,0,0,7.24481.32637.47052.47052,0,0,0,.285-.57727.45752.45752,0,0,0-.57727-.285Z" transform="translate(-223.31656 -125.21687)" fill="#fff"/><path d="M916.16848,641.36805c.30886.19735.61771.3947.927.59974a90.98207,90.98207,0,0,1,11.70478,8.99c.2864.25132.57285.51034.85143.76937a95.91645,95.91645,0,0,1,21.05621,28.34934,93.14616,93.14616,0,0,1,5.20662,13.16021c1.93212,6.23195,3.53118,13.1427,7.29832,18.22288a15.97692,15.97692,0,0,0,1.257,1.52688l33.67775-.26666c.07624-.039.1529-.07039.22951-.10941l1.34514.05083c-.05591-.23776-.119-.48316-.17493-.72093-.03186-.13805-.07122-.27605-.10308-.41411-.02362-.092-.04761-.18408-.06366-.26847-.00775-.03066-.01587-.06131-.02356-.08433-.01605-.08439-.03992-.16107-.05591-.23776q-.5234-2.059-1.07755-4.11788c-.00006-.00769-.00006-.00769-.00762-.01532a136.95938,136.95938,0,0,0-11.76516-30.16719c-.15608-.28307-.31184-.57384-.4833-.8568a88.88277,88.88277,0,0,0-8.07936-12.04632,78.57691,78.57691,0,0,0-5.28005-5.94415,65.34166,65.34166,0,0,0-16.44775-12.11837c-12.12945-6.28182-26.13292-8.61451-39.01093-4.61665C916.82,641.15545,916.49779,641.25785,916.16848,641.36805Z" transform="translate(-223.31656 -125.21687)" fill="#f0f0f0"/><path d="M916.24758,641.79489a81.34988,81.34988,0,0,1,43.90385,24.03288,35.03233,35.03233,0,0,1,6.35695,8.948,20.09248,20.09248,0,0,1,1.70352,10.43644c-.28207,3.3343-.95672,6.71227-.42336,10.05708a12.30267,12.30267,0,0,0,5.63311,8.33662c3.612,2.37328,7.86142,3.30716,12.04869,4.076,4.64918.85365,9.49174,1.66667,13.389,4.53561.47221.34761.984-.40543.51248-.75251-6.78059-4.99147-15.80519-3.86129-23.20741-7.36434-3.454-1.63458-6.43634-4.32-7.31921-8.16357-.772-3.361-.07931-6.845.23547-10.21862a21.44023,21.44023,0,0,0-1.28547-10.26666,32.38621,32.38621,0,0,0-5.98948-9.15935A78.92392,78.92392,0,0,0,942.63965,650.764a82.79235,82.79235,0,0,0-26.32937-9.87755c-.57413-.10913-.63309.8-.0627.90843Z" transform="translate(-223.31656 -125.21687)" fill="#fff"/><path d="M956.605,661.6041a12.20506,12.20506,0,0,0-.4048-15.79909c-.39208-.43523-1.08682.15358-.69422.58939a11.30162,11.30162,0,0,1,.34651,14.69722c-.36991.45429.38472.96417.75251.51248Z" transform="translate(-223.31656 -125.21687)" fill="#fff"/><path d="M968.57758,683.54039a23.52429,23.52429,0,0,1-16.57968-4.36165c-.47342-.34593-.98533.407-.51248.75251a24.46877,24.46877,0,0,0,17.26189,4.50362c.58287-.06946.41-.96357-.16973-.89448Z" transform="translate(-223.31656 -125.21687)" fill="#fff"/><path d="M934.345,647.19255a6.90864,6.90864,0,0,1-5.39829,3.71928c-.58345.062-.40993.95612.16973.89449a7.74174,7.74174,0,0,0,5.98107-4.10129.47053.47053,0,0,0-.12-.6325.45753.45753,0,0,0-.63249.12Z" transform="translate(-223.31656 -125.21687)" fill="#fff"/><path d="M788.70874,445.35256a6.6176,6.6176,0,0,0,10.13608.47785l21.56551,9.37924-2.1006-12.03868-20.15693-7.061a6.65349,6.65349,0,0,0-9.44406,9.24262Z" transform="translate(-223.31656 -125.21687)" fill="#a0616a"/><path d="M808.33018,438.55131l41.19723,5.33928,42.485-25.59256a18.78361,18.78361,0,0,1,26.80668,8.35028h0a18.80382,18.80382,0,0,1-8.4331,24.39255l-57.08925,20.34376-.10746.03844-50.08943-22.31169Z" transform="translate(-223.31656 -125.21687)" fill="#3f3d56"/><polygon points="690.298 579.764 681.54 579.764 677.374 545.984 690.3 545.985 690.298 579.764" fill="#a0616a"/><path d="M915.848,713.4702l-28.2383-.001V713.112a10.99172,10.99172,0,0,1,10.99113-10.991h.0007l5.1581-3.9132,9.62386,3.9138,2.465.0001Z" transform="translate(-223.31656 -125.21687)" fill="#2f2e41"/><polygon points="656.36 574.245 647.818 576.174 636.313 544.142 648.921 541.295 656.36 574.245" fill="#a0616a"/><path d="M883.72548,707.25094l-27.54492,6.21926-.07868-.3484a10.99172,10.99172,0,0,1,8.3001-13.14209l.00068-.00016,4.1694-4.9533,10.2496,1.69774,2.40451-.54289Z" transform="translate(-223.31656 -125.21687)" fill="#2f2e41"/><path d="M924.70647,498.47061c4.106,12.3837,3.67191,25.82586-.98693,40.253L921.728,619.95178s2.96729,53.26781-6.6076,72.01238H901.23414l-6.87529-76.877-.86335-51.60031-29.77062,43.53325,18.9618,83.68716L865.596,692.23513l-30.76995-90.82,37.964-88.11122Z" transform="translate(-223.31656 -125.21687)" fill="#2f2e41"/><path d="M868.49283,510.44241l3.42446-8.561-2.26477-7.36036-.51563-71.32157-.00028-.05432,8.21752-13.10363.06685-8.288,22.94605-.55964,2.48846,6.31934,4.924,2.9442A35.64637,35.64637,0,0,1,925.08672,441.638l-.88947,48.12063,2.28984,4.58024a9.63783,9.63783,0,0,1-5.67975,13.49028l-50.4935,8.07657Z" transform="translate(-223.31656 -125.21687)" fill="#3f3d56"/><circle cx="663.47615" cy="247.27029" r="20.8488" fill="#a0616a"/><path d="M908.5027,377.03213c.62184-2.6197.33635-6.30613-.01506-8.94389a25.03486,25.03486,0,0,0-10.5963-17.38372,7.63326,7.63326,0,0,0-3.80218-1.511,3.28226,3.28226,0,0,0-3.3002,1.99619,6.84189,6.84189,0,0,0-3.8598-3.82756,12.05793,12.05793,0,0,0-5.49444-.74021,20.08039,20.08039,0,0,0-16.75192,11.9747c-.55687,1.32291-2.11229-3.56352-2.81785-2.31357a5.55717,5.55717,0,0,1-3.15143,2.76892c-1.38251.38578-1.944,6.08184-2.4881,4.75361a6.33176,6.33176,0,0,0,6.05342,8.8288,34.87245,34.87245,0,0,0,4.143-.793,10.32927,10.32927,0,0,1,11.3093,7.73074,13.68475,13.68475,0,0,1,1.80033-4.00553,4.63181,4.63181,0,0,1,3.71585-2.04166,5.2038,5.2038,0,0,1,3.57592,2.05552c.91785,1.07772,1.6072,2.3351,2.53182,3.407,2.71306,3.14524,6.38255,10.4801,10.24894,9.94514C902.65525,388.51049,907.65366,380.609,908.5027,377.03213Z" transform="translate(-223.31656 -125.21687)" fill="#2f2e41"/><path d="M809.07054,500.68736a6.61764,6.61764,0,0,0,9.07527-4.53962l23.39771-2.36389-7.71912-9.474L812.789,488.00707a6.65349,6.65349,0,0,0-3.71842,12.68029Z" transform="translate(-223.31656 -125.21687)" fill="#a0616a"/><path d="M822.86038,485.16l38.54676-15.48762,24.54475-43.09887a18.78361,18.78361,0,0,1,27.46639-5.82433h0a18.80381,18.80381,0,0,1,4.5716,25.40107L878.13941,491.812l-.07493.08608-54.60267,5.031Z" transform="translate(-223.31656 -125.21687)" fill="#3f3d56"/><path d="M1030.27526,714.66088h-347.988a1.19069,1.19069,0,1,1,0-2.38137h347.988a1.19069,1.19069,0,1,1,0,2.38137Z" transform="translate(-223.31656 -125.21687)" fill="#ccc"/><path d="M805.38289,521.01774H647.24317a4.16145,4.16145,0,0,1-4.15662-4.15662V452.69488a4.16146,4.16146,0,0,1,4.15662-4.15663H805.38289a4.16139,4.16139,0,0,1,4.15662,4.15663v64.16624A4.16138,4.16138,0,0,1,805.38289,521.01774Z" transform="translate(-223.31656 -125.21687)" fill="#f79910"/><path d="M790.32508,551.79867h-128.024a4.98795,4.98795,0,1,1,0-9.97589h128.024C796.75761,541.733,796.822,551.88927,790.32508,551.79867Z" transform="translate(-223.31656 -125.21687)" fill="#e4e4e4"/><path d="M790.32508,574.6601h-128.024a4.98795,4.98795,0,1,1,0-9.9759h128.024C796.75761,564.59441,796.822,574.7507,790.32508,574.6601Z" transform="translate(-223.31656 -125.21687)" fill="#e4e4e4"/><path d="M790.32508,597.52152h-128.024a4.98795,4.98795,0,1,1,0-9.97589h128.024C796.75761,587.45584,796.822,597.61212,790.32508,597.52152Z" transform="translate(-223.31656 -125.21687)" fill="#e4e4e4"/><path d="M252.32744,350.82694c-27.83858-36.57706-39.05316-88.47429-18.33162-129.504A211.7829,211.7829,0,0,0,335.67037,325.267c17.42189,8.253,37.65858,15.61834,45.90545,33.04327,5.13162,10.84211,4.35538,23.73629.5,35.09462-3.8558,11.35878-10.53652,21.50912-17.14717,31.51858l-.31528,2.9778C321.91979,410.86836,280.166,387.404,252.32744,350.82694Z" transform="translate(-223.31656 -125.21687)" fill="#f0f0f0"/><path d="M234.90751,221.63772c1.70626,37.60771,15.43815,74.91386,39.06105,104.29815,5.10722,6.35282,10.841,12.35276,17.70007,16.82962a44.70911,44.70911,0,0,0,22.44916,7.05027c7.43334.4324,15.08691.01389,22.2857,2.24569,7.5879,2.35244,13.24276,7.92665,16.58226,15.04208,4.086,8.70592,4.80008,18.36081,5.17031,27.82674.41107,10.51012.67152,21.43336,5.7591,30.92419.61644,1.14995-1.20394,2.0392-1.81944.891-8.85153-16.51242-3.51028-36.033-8.88695-53.44429-2.50885-8.12442-7.4813-15.542-15.66826-18.70125-7.15915-2.76263-15.05194-2.33781-22.58214-2.71057-7.90684-.39141-15.31136-2.06365-22.2073-6.07581-7.05417-4.10421-13.03457-9.89263-18.2818-16.087a175.61939,175.61939,0,0,1-28.14647-47.12278,184.22731,184.22731,0,0,1-13.436-61.115c-.05894-1.2991,1.96218-1.14165,2.02073.149Z" transform="translate(-223.31656 -125.21687)" fill="#fff"/><path d="M265.78615,316.7897a27.15837,27.15837,0,0,1-34.67145-5.88435c-.83475-1.00113.68173-2.3453,1.51758-1.34285a25.14805,25.14805,0,0,0,32.26288,5.40776c1.11752-.6712,2.00212,1.15208.891,1.81944Z" transform="translate(-223.31656 -125.21687)" fill="#fff"/><path d="M310.31991,350.09292a52.34556,52.34556,0,0,0-4.36763-37.89706c-.61233-1.15209,1.20785-2.04169,1.81945-.891a54.44728,54.44728,0,0,1,4.46475,39.44456c-.3372,1.26188-2.25193.59851-1.91657-.65651Z" transform="translate(-223.31656 -125.21687)" fill="#fff"/><path d="M241.07747,263.20516a15.373,15.373,0,0,0,9.8981-10.715c.321-1.26553,2.23551-.60078,1.91656.65651a17.22666,17.22666,0,0,1-10.92367,11.87795,1.047,1.047,0,0,1-1.35522-.46423,1.01806,1.01806,0,0,1,.46423-1.35522Z" transform="translate(-223.31656 -125.21687)" fill="#fff"/><path d="M385.762,186.85342c-.178.79592-.356,1.59184-.52259,2.40058a202.45258,202.45258,0,0,0-4.37543,32.54807c-.05788.84589-.1038,1.704-.13725,2.54979a213.43075,213.43075,0,0,0,11.22712,77.77264A207.26709,207.26709,0,0,0,404.376,331.06328c6.72447,12.86716,15.0393,26.28341,17.06085,40.2106a35.55473,35.55473,0,0,1,.41063,4.38162L368.27065,428.055c-.18152.058-.35174.12871-.53386.18727l-2.04349,2.19c-.28466-.463-.57-.94931-.85461-1.4123-.16624-.26789-.32054-.54745-.48678-.81534-.107-.18228-.21357-.36523-.32059-.52361-.03586-.06054-.07112-.12167-.09508-.17005-.107-.15838-.18961-.31685-.28466-.463q-2.40326-4.071-4.75763-8.18989c-.012-.01224-.012-.01224-.012-.03615-11.90612-20.95328-22.16757-43.08461-28.74369-66.06987-.19762-.69161-.40781-1.39487-.581-2.11041a197.78094,197.78094,0,0,1-6.14065-31.68621,174.84773,174.84773,0,0,1-.98857-17.66379,145.397,145.397,0,0,1,6.9554-44.92495c9.29327-28.93943,27.73842-54.58458,54.336-68.4721C384.4001,187.53974,385.06935,187.196,385.762,186.85342Z" transform="translate(-223.31656 -125.21687)" fill="#f0f0f0"/><path d="M386.30659,187.65123C365.0265,218.70616,353.52977,256.76058,354.7,294.44491c.253,8.14727,1.21868,16.39,3.99991,24.09417a44.7091,44.7091,0,0,0,13.67965,19.14519c5.67477,4.82064,12.03769,9.09445,16.44183,15.21059,4.64218,6.44673,5.80121,14.302,4.18363,21.99392-1.97915,9.41123-7.22187,17.55006-12.62542,25.331-5.9996,8.63922-12.36818,17.51763-14.02017,28.15861-.20016,1.2893-2.189.90333-1.98916-.384,2.87417-18.51348,18.8916-30.88379,25.08142-48.02284,2.88829-7.99739,3.384-16.91366-1.25079-24.36527-4.05287-6.51611-10.6106-10.92892-16.39862-15.76025-6.07751-5.073-10.9828-10.86619-14.07323-18.22151-3.16134-7.52408-4.45132-15.74643-4.9115-23.85149a175.6193,175.6193,0,0,1,5.89779-54.571,184.22712,184.22712,0,0,1,26.06753-56.8863c.73508-1.07275,2.254.26982,1.52376,1.33556Z" transform="translate(-223.31656 -125.21687)" fill="#fff"/><path d="M353.67338,282.21583A27.15836,27.15836,0,0,1,329.533,256.64289c-.06375-1.30191,1.95636-1.46214,2.02019-.15849a25.14806,25.14806,0,0,0,22.50425,23.74227c1.29639.13691.905,2.12529-.384,1.98916Z" transform="translate(-223.31656 -125.21687)" fill="#fff"/><path d="M369.18027,335.619a52.34554,52.34554,0,0,0,19.32933-32.88829c.20472-1.28855,2.19364-.903,1.98916.384a54.44726,54.44726,0,0,1-20.18349,34.18237c-1.029.80452-2.15839-.87794-1.135-1.6781Z" transform="translate(-223.31656 -125.21687)" fill="#fff"/><path d="M366.20648,224.55524a15.37292,15.37292,0,0,0,14.35425-2.596c1.01827-.81717,2.14664.86624,1.135,1.67809a17.22664,17.22664,0,0,1-15.87329,2.90707,1.047,1.047,0,0,1-.80257-1.18659,1.01807,1.01807,0,0,1,1.1866-.80257Z" transform="translate(-223.31656 -125.21687)" fill="#fff"/><circle cx="176.73495" cy="141.33694" r="22.44541" fill="#2f2e41"/><path d="M522.86615,482.5485H364.72643a4.16146,4.16146,0,0,1-4.15662-4.15663V414.22563a4.16145,4.16145,0,0,1,4.15662-4.15662H522.86615a4.16139,4.16139,0,0,1,4.15662,4.15662v64.16624A4.16139,4.16139,0,0,1,522.86615,482.5485Z" transform="translate(-223.31656 -125.21687)" fill="#d1d3d4"/><path d="M507.80833,513.32943h-128.024a4.988,4.988,0,0,1,0-9.9759h128.024C514.24087,503.26374,514.30521,513.42,507.80833,513.32943Z" transform="translate(-223.31656 -125.21687)" fill="#e4e4e4"/><path d="M507.80833,536.19085h-128.024a4.98795,4.98795,0,1,1,0-9.97589h128.024C514.24087,526.12517,514.30521,536.28145,507.80833,536.19085Z" transform="translate(-223.31656 -125.21687)" fill="#e4e4e4"/><path d="M507.80833,559.05228h-128.024a4.98795,4.98795,0,0,1,0-9.9759h128.024C514.24087,548.9866,514.30521,559.14288,507.80833,559.05228Z" transform="translate(-223.31656 -125.21687)" fill="#e4e4e4"/><path d="M518.3203,310.88021a7.5527,7.5527,0,0,1-11.506,1.31694l-56.03547,23.91971,1.47421-13.86917,54.6082-21.17247a7.59361,7.59361,0,0,1,11.45907,9.805Z" transform="translate(-223.31656 -125.21687)" fill="#ffb6b6"/><path d="M404.26434,309.59186s-6.9281,6.729-.05264,15.38831,40.87031,14.28989,46.32241,15.36146,35.77912-19.55715,35.77912-19.55715l2.93726-14.94511-33.85165,11.614Z" transform="translate(-223.31656 -125.21687)" fill="#f79910"/><path d="M385.65859,360.6475l.54554,10.36527s-1.6102,9.1817-.28592,11.1631c1.31431,1.97149,37.17883,2.22041,37.17883,2.22041s2.36973-12.77463,4.41087-23.95613Z" transform="translate(-223.31656 -125.21687)" fill="#ffb6b6"/><polygon points="265.457 372.482 272.955 370.968 270.809 340.682 259.743 342.918 265.457 372.482" fill="#ffb6b6"/><polygon points="276.197 333.07 283.167 329.936 274.125 300.959 263.837 305.586 276.197 333.07" fill="#ffb6b6"/><path d="M505.58509,441.9601l-13.12456,7.43147-32.368-52.01294c-22.72256,15.30844-44.94235,22.63954-67.34188,26.55157-7.57317,1.34845-15.2945.66509-16.74841-7.04294q-.102-.54051-.16257-1.08705c-.89431-8.41941,9.57876-19.21125,10.91-29.5123l28.663-1.72061,3.53455,4.53182,33.14777-20.37939a14.22944,14.22944,0,0,1,19.58307,4.95118q.32862.54118.61018,1.10917Z" transform="translate(-223.31656 -125.21687)" fill="#2f2e41"/><path d="M497.55209,476.94969l-15.01776,1.39566L455.30469,422.656c-27.0018,4.64388-52.47556,6.13153-74.50924.51382a14.24211,14.24211,0,0,1-10.18528-17.20508q.12864-.53472.29751-1.0581c2.637-8.04565,9.53976-13.73838,14.97824-22.5875l39.72453.60342-4.437,15.3091,38.58961-4.99362a14.22943,14.22943,0,0,1,15.8303,12.54641q.07779.62835.10166,1.26184Z" transform="translate(-223.31656 -125.21687)" fill="#2f2e41"/><circle cx="177.85296" cy="149.54605" r="16.13042" fill="#ffb6b6"/><path d="M391.71309,296.71644l14.7901,1.74a3.018,3.018,0,0,1,2.59579,2.353l2.35209,10.763,14.66229,17.26667s5.26507,9.87206,3.29069,21.0604S426.562,369.4013,426.562,369.4013s-39.33133,14.747-40.6476,12.77256-1.74344-10.94267-1.74344-10.94267L378.90588,312.657s5.92323-9.87205,9.21392-9.87205C390.24358,302.71331,389.97113,297.93343,391.71309,296.71644Z" transform="translate(-223.31656 -125.21687)" fill="#f79910"/><ellipse cx="203.64529" cy="243.2793" rx="3.75539" ry="4.50647" fill="#f79910"/><path d="M485.05261,489.90106l11.431-5.72874,2.15445,5.02613,14.45491,2.922a3.41579,3.41579,0,0,1,.6692,6.48775l-13.96637,5.98667-4.5384-3.93972,1.19114,5.37452-5.26588,2.25722Z" transform="translate(-223.31656 -125.21687)" fill="#2f2e41"/><path d="M496.242,455.87627l11.32849-5.9289,2.24251,4.98747,14.50407,2.6673a3.41578,3.41578,0,0,1,.7832,6.475l-13.85893,6.23139-4.607-3.8593,1.28548,5.35274-5.22537,2.34948Z" transform="translate(-223.31656 -125.21687)" fill="#2f2e41"/><path d="M391.95364,269.70328a20.64237,20.64237,0,0,1-11.90679-3.75646l-.11641-.08151v-.142a15.56559,15.56559,0,0,1,15.5479-15.5479h6.54649a15.56559,15.56559,0,0,1,15.54791,15.5479,3.62006,3.62006,0,0,1-3.54069,3.60249l-21.71054.37426C392.199,269.70221,392.07591,269.70328,391.95364,269.70328Z" transform="translate(-223.31656 -125.21687)" fill="#2f2e41"/><path d="M456.88021,395.17611a7.55265,7.55265,0,0,1-8.22151-8.15655l-53.70233-28.77824,11.74595-7.52062,50.66588,29.38193a7.59361,7.59361,0,0,1-.488,15.07348Z" transform="translate(-223.31656 -125.21687)" fill="#ffb6b6"/><path d="M386.5765,305.35513s-9.58323-1.2-12.04279,9.57987,14.4,40.83164,16.97242,45.75671,37.633,15.69661,37.633,15.69661l13.5004-7.05147L412.41086,350.1784Z" transform="translate(-223.31656 -125.21687)" fill="#f79910"/><path d="M403.66608,252.57923c1.50926-1.85063.32945-4.59164-.90821-6.63391q-4.25372-7.01907-8.92988-13.77023c-3.89552-5.62391-8.61563-11.5035-15.32276-12.85178-6.11687-1.22961-12.27907,1.67716-17.54144,5.02911-5.17385,3.29557-10.26964,7.44685-12.23887,13.25646-1.88453,5.55973-.561,11.7338,1.78383,17.11563,2.00823,4.60934,4.71,10.12111,1.84595,14.25346a11.05671,11.05671,0,0,1-5.29648,3.60469,37.8325,37.8325,0,0,1-16.62932,2.45369c7.76709-.0835,14.56583,7.89179,22.09541,5.98389,4.26985-1.08192,7.11355-5.06266,9.15993-8.96324a25.11031,25.11031,0,0,0,2.98931-8.466c.49749-4.04034-.57852-8.292.7799-12.12949,1.41377-3.99388,5.17214-6.66612,8.96571-8.55255,2.51875-1.25249,5.26467-2.29852,8.06961-2.0862,7.95119.60184,12.06933,10.38851,19.61418,12.969" transform="translate(-223.31656 -125.21687)" fill="#2f2e41"/><path d="M673.90537,307.19618H515.76565a4.16145,4.16145,0,0,1-4.15662-4.15663V238.87331a4.16145,4.16145,0,0,1,4.15662-4.15662H673.90537a4.16139,4.16139,0,0,1,4.15662,4.15662v64.16624A4.16139,4.16139,0,0,1,673.90537,307.19618Z" transform="translate(-223.31656 -125.21687)" fill="#f79910"/><path d="M658.84755,337.97711h-128.024a4.98795,4.98795,0,0,1,0-9.9759h128.024C665.28009,327.91142,665.34443,338.06771,658.84755,337.97711Z" transform="translate(-223.31656 -125.21687)" fill="#e4e4e4"/><path d="M658.84755,360.83853h-128.024a4.98795,4.98795,0,1,1,0-9.97589h128.024C665.28009,350.77285,665.34443,360.92913,658.84755,360.83853Z" transform="translate(-223.31656 -125.21687)" fill="#e4e4e4"/><path d="M658.84755,383.7h-128.024a4.98795,4.98795,0,0,1,0-9.9759h128.024C665.28009,373.63428,665.34443,383.79056,658.84755,383.7Z" transform="translate(-223.31656 -125.21687)" fill="#e4e4e4"/><path d="M842.65819,148.60552H312.91682a2.9705,2.9705,0,0,1-2.96725-2.96725V128.18412a2.9705,2.9705,0,0,1,2.96725-2.96725H842.65819a2.9705,2.9705,0,0,1,2.96725,2.96725v17.45415A2.9705,2.9705,0,0,1,842.65819,148.60552Z" transform="translate(-223.31656 -125.21687)" fill="#e6e7e8"/><circle id="b637d542-0ea5-46b9-aa61-095218110267" data-name="Ellipse 90" cx="103.85322" cy="10.84298" r="4.21275" fill="#fff"/><circle id="b2f1169c-b566-47c9-8d4c-e5da87bed52d" data-name="Ellipse 91" cx="119.84345" cy="10.84298" r="4.21275" fill="#fff"/><circle id="a4343e91-3550-42c2-91d2-f5254c8e4c9c" data-name="Ellipse 92" cx="135.83441" cy="10.84298" r="4.21275" fill="#fff"/><path d="M826.99117,133.16028H808.57783a1.364,1.364,0,0,1,0-2.72791h18.41334a1.364,1.364,0,0,1,0,2.72791Z" transform="translate(-223.31656 -125.21687)" fill="#fff"/><path d="M826.99117,138.27509H808.57783a1.36395,1.36395,0,0,1,0-2.7279h18.41334a1.364,1.364,0,1,1,0,2.7279Z" transform="translate(-223.31656 -125.21687)" fill="#fff"/><path d="M826.99117,143.38991H808.57783a1.36395,1.36395,0,1,1,0-2.7279h18.41334a1.36395,1.36395,0,1,1,0,2.7279Z" transform="translate(-223.31656 -125.21687)" fill="#fff"/></svg>