<?xml version="1.0" encoding="UTF-8" standalone="no"?>
<!-- Created with Inkscape (http://www.inkscape.org/) -->

<svg
   width="41.300747"
   height="51.389038"
   viewBox="0 0 10.927489 13.596683"
   version="1.1"
   id="svg1"
   inkscape:version="1.3.2 (091e20ef0f, 2023-11-25)"
   sodipodi:docname="flair_logo.svg"
   xml:space="preserve"
   xmlns:inkscape="http://www.inkscape.org/namespaces/inkscape"
   xmlns:sodipodi="http://sodipodi.sourceforge.net/DTD/sodipodi-0.dtd"
   xmlns="http://www.w3.org/2000/svg"
   xmlns:svg="http://www.w3.org/2000/svg"><sodipodi:namedview
     id="namedview1"
     pagecolor="#505050"
     bordercolor="#eeeeee"
     borderopacity="1"
     inkscape:showpageshadow="0"
     inkscape:pageopacity="0"
     inkscape:pagecheckerboard="0"
     inkscape:deskcolor="#505050"
     inkscape:document-units="px"
     inkscape:zoom="0.58541666"
     inkscape:cx="911.31674"
     inkscape:cy="393.73666"
     inkscape:window-width="1920"
     inkscape:window-height="1011"
     inkscape:window-x="0"
     inkscape:window-y="0"
     inkscape:window-maximized="1"
     inkscape:current-layer="layer1" /><defs
     id="defs1"><rect
       x="203.51459"
       y="1150.095"
       width="367.98785"
       height="99.33934"
       id="rect47" /><rect
       x="203.51459"
       y="1150.095"
       width="433.75299"
       height="97.631157"
       id="rect48" /><rect
       x="203.51459"
       y="1150.095"
       width="382.71518"
       height="121.78854"
       id="rect49" /><rect
       x="203.51459"
       y="1150.095"
       width="433.75299"
       height="97.631157"
       id="rect50" /><rect
       x="203.51459"
       y="1150.095"
       width="433.75299"
       height="97.631157"
       id="rect51" /><rect
       x="203.51459"
       y="1150.095"
       width="385.43823"
       height="103.11166"
       id="rect52" /><rect
       x="203.51459"
       y="1150.095"
       width="433.75299"
       height="97.631157"
       id="rect58" /><rect
       x="203.51459"
       y="1150.095"
       width="553.33203"
       height="91.591812"
       id="rect59" /><rect
       x="203.51459"
       y="1150.095"
       width="433.75299"
       height="97.631157"
       id="rect60" /></defs><g
     inkscape:label="Layer 1"
     inkscape:groupmode="layer"
     id="layer1"
     transform="translate(-53.846565,-6.5106916)"><g
       id="g19"
       style="display:inline"
       transform="matrix(0.40204155,0,0,0.40204155,-31.329958,6.5103298)"><path
         class="st0"
         d="m 224.21,3.67 c -0.28,0.04 -0.3,0.33 0.01,0.42 1.21,0.42 2.32,1.25 3.11,2.44 1.92,2.92 1.11,6.77 -1.88,8.18 -0.18,0.09 -0.38,-0.08 -0.32,-0.27 0.16,-0.45 0.25,-0.94 0.25,-1.45 0,-1.57 -0.85,-2.95 -2.11,-3.69 -0.18,-0.11 -0.39,0.08 -0.32,0.28 0.22,0.66 0.16,1.46 -0.23,2.18 -0.41,0.77 -0.75,1.55 -2.6,1.77 -1.61,0.22 -2.69,0.45 -4.08,1.46 -0.03,0.02 -0.05,0.04 -0.08,0.06 -0.26,0.19 -0.51,0.4 -0.75,0.61 -0.06,0.05 -0.12,0.11 -0.17,0.16 -0.21,0.2 -0.42,0.42 -0.62,0.64 -0.05,0.06 -0.11,0.12 -0.16,0.18 -0.21,0.26 -0.42,0.52 -0.61,0.8 -0.02,0.03 -0.04,0.05 -0.06,0.08 -0.21,0.31 -0.4,0.64 -0.58,0.98 -0.02,0.04 -0.04,0.09 -0.06,0.13 -0.14,0.28 -0.27,0.57 -0.39,0.87 -0.04,0.11 -0.08,0.22 -0.12,0.32 -0.09,0.24 -0.16,0.49 -0.23,0.74 -0.03,0.12 -0.07,0.25 -0.09,0.38 -0.06,0.26 -0.1,0.52 -0.14,0.78 -0.02,0.12 -0.04,0.23 -0.05,0.35 -0.04,0.38 -0.07,0.77 -0.07,1.16 0,3.95 2.21,7.37 5.43,9.02 0.05,0.03 0.12,0.06 0.19,0.1 0.17,0.08 0.34,0.17 0.52,0.24 1.82,0.79 3.83,1.23 5.94,1.23 3.49,0 6.7,-1.18 9.26,-3.17 3.55,-2.76 5.84,-7.07 5.84,-11.92 0,-8.23 -6.62,-14.92 -14.83,-15.06 z m 7.46,18.53 c -0.82,2.9 -3.19,4.93 -5.96,5.47 -0.97,0.27 -2.06,0.29 -3.16,-0.02 -0.08,-0.02 -0.15,-0.05 -0.23,-0.08 -0.07,-0.02 -0.13,-0.03 -0.2,-0.05 V 27.5 c -2.48,-0.9 -3.96,-3.24 -3.35,-5.4 0.65,-2.29 3.39,-3.51 6.13,-2.74 1.28,0.36 2.33,1.1 3.02,2.02 1.38,-0.59 2.48,-1.77 2.92,-3.32 0.16,-0.55 0.21,-1.1 0.19,-1.64 0.93,1.71 1.22,3.76 0.64,5.78 z"
         id="path21"
         inkscape:connector-curvature="0"
         style="fill:#f79910" /><path
         class="st0"
         d="m 220.58,7.28 c 0.5,-0.13 0.94,-0.36 1.33,-0.66 0.15,-0.13 0.08,-0.38 -0.13,-0.4 -1.63,0.02 -3.12,-1.05 -3.55,-2.7 -0.3,-1.14 0,-2.29 0.68,-3.15 0.13,-0.17 -0.02,-0.42 -0.23,-0.36 -2,0.53 -3.2,2.58 -2.68,4.58 0.52,2.01 2.57,3.21 4.58,2.69 z"
         id="path23"
         inkscape:connector-curvature="0"
         style="fill:#f79910" /></g></g><style
     type="text/css"
     id="style3">
	.st0{fill:#F79910;}
</style></svg>
