<?xml version="1.0" encoding="UTF-8" standalone="no"?>
<!-- Generator: Adobe Illustrator 24.0.1, SVG Export Plug-In . SVG Version: 6.00 Build 0)  -->

<svg
   xmlns:dc="http://purl.org/dc/elements/1.1/"
   xmlns:cc="http://creativecommons.org/ns#"
   xmlns:rdf="http://www.w3.org/1999/02/22-rdf-syntax-ns#"
   xmlns:svg="http://www.w3.org/2000/svg"
   xmlns="http://www.w3.org/2000/svg"
   xmlns:sodipodi="http://sodipodi.sourceforge.net/DTD/sodipodi-0.dtd"
   xmlns:inkscape="http://www.inkscape.org/namespaces/inkscape"
   version="1.1"
   id="Ebene_1"
   x="0px"
   y="0px"
   viewBox="0 0 132.64804 58.068163"
   xml:space="preserve"
   inkscape:version="0.91 r13725"
   sodipodi:docname="flair_logo_2020.svg"
   width="132.64804"
   height="58.068161"><metadata
     id="metadata29"><rdf:RDF><cc:Work
         rdf:about=""><dc:format>image/svg+xml</dc:format><dc:type
           rdf:resource="http://purl.org/dc/dcmitype/StillImage" /><dc:title></dc:title></cc:Work></rdf:RDF></metadata><defs
     id="defs27" /><sodipodi:namedview
     pagecolor="#ffffff"
     bordercolor="#666666"
     borderopacity="1"
     objecttolerance="10"
     gridtolerance="10"
     guidetolerance="10"
     inkscape:pageopacity="0"
     inkscape:pageshadow="2"
     inkscape:window-width="1855"
     inkscape:window-height="1056"
     id="namedview25"
     showgrid="false"
     inkscape:zoom="0.92049178"
     inkscape:cx="161.87"
     inkscape:cy="70.855002"
     inkscape:window-x="65"
     inkscape:window-y="24"
     inkscape:window-maximized="1"
     inkscape:current-layer="Ebene_1"
     fit-margin-top="0"
     fit-margin-left="0"
     fit-margin-right="0"
     fit-margin-bottom="0" /><style
     type="text/css"
     id="style3">
	.st0{fill:#F79910;}
</style><g
     id="g5"
     transform="matrix(0.40974126,0,0,0.40974126,0,-3.68764e-4)"><g
       id="g7"><path
         d="m 44.37,61.16 -9.09,0 c -2.75,0 -4.97,2.23 -4.97,4.97 l 0,69.52 c 0,2.75 -2.23,4.97 -4.97,4.97 l -9.37,0 c -2.75,0 -4.97,-2.23 -4.97,-4.97 L 11,66.13 C 11,63.38 8.77,61.16 6.03,61.16 l -1.06,0 C 2.23,61.16 0,58.93 0,56.19 L 0,51.35 C 0,48.6 2.23,46.38 4.97,46.38 l 1.05,0 c 2.75,0 4.97,-2.23 4.97,-4.97 l 0,-9.81 c 0,-4.74 0.97,-9.15 2.91,-13.21 1.94,-4.07 4.88,-7.31 8.82,-9.75 3.94,-2.43 8.78,-3.65 14.51,-3.65 l 7.13,0 c 2.75,0 4.97,2.23 4.97,4.97 l 0,6.51 c 0,2.75 -2.23,4.97 -4.97,4.97 l -3.53,0 c -7.02,0 -10.53,3.73 -10.53,11.18 l 0,8.8 c 0,2.75 2.23,4.97 4.97,4.97 l 9.09,0 c 2.75,0 4.97,2.23 4.97,4.97 l 0,4.84 c 0.01,2.73 -2.21,4.96 -4.96,4.96 z"
         id="path9"
         inkscape:connector-curvature="0" /><path
         d="m 104.43,135.65 c 0,2.75 -2.23,4.97 -4.97,4.97 l -6.95,0 c -8.68,0 -15.23,-2.51 -19.64,-7.53 -4.4,-5.02 -6.61,-11.35 -6.61,-18.99 l 0,-103.23 c 0,-2.75 2.23,-4.97 4.97,-4.97 l 9.37,0 c 2.75,0 4.97,2.23 4.97,4.97 l 0,102.12 c 0,3.82 0.77,6.64 2.31,8.45 1.54,1.82 4.22,2.73 8.04,2.73 l 3.53,0 c 2.75,0 4.97,2.23 4.97,4.97 l 0,6.51 z"
         id="path11"
         inkscape:connector-curvature="0" /><path
         class="st0"
         d="m 188.09,140.62 -11.24,0 c -1.51,0 -2.73,-1.22 -2.73,-2.73 l 0,0 c 0,-2.24 -2.55,-3.51 -4.35,-2.18 -2.16,1.61 -4.38,2.86 -6.65,3.75 -3.82,1.51 -8.65,2.26 -14.51,2.26 -5.79,0 -10.81,-0.73 -15.06,-2.17 -4.25,-1.45 -7.82,-3.62 -10.72,-6.52 -5.05,-5.24 -7.58,-12.1 -7.58,-20.61 0,-5.48 1.26,-10.3 3.79,-14.46 2.52,-4.16 6.27,-7.39 11.23,-9.7 4.96,-2.31 10.98,-3.47 18.06,-3.47 l 20.44,0 c 2.75,0 4.97,-2.23 4.97,-4.97 l 0,-1.82 c 0,-6.13 -1.66,-10.65 -4.99,-13.53 -3.33,-2.88 -8.65,-4.33 -15.99,-4.33 -5.36,0 -9.53,0.68 -12.52,2.03 -1.84,0.83 -3.63,2.06 -5.37,3.69 -1.93,1.81 -4.91,1.86 -6.84,0.05 l -5.37,-5.05 c -2.11,-1.99 -2.05,-5.32 0.06,-7.31 3.35,-3.16 6.93,-5.48 10.74,-6.96 5.23,-2.05 11.92,-3.07 20.05,-3.07 26.36,0 39.55,11 39.55,32.99 l 0,59.16 c 0,2.73 -2.23,4.95 -4.97,4.95 z m -14.34,-34.65 0,-2.79 c 0,-2.75 -2.23,-4.97 -4.97,-4.97 l -17.58,0 c -5.61,0 -9.87,1.2 -12.8,3.6 -2.93,2.4 -4.39,5.82 -4.39,10.26 0,9.05 5.85,13.58 17.56,13.58 4.13,0 7.58,-0.36 10.35,-1.06 2.77,-0.71 5.33,-2.17 7.67,-4.39 2.77,-2.77 4.16,-7.51 4.16,-14.23 z"
         id="path13"
         inkscape:connector-curvature="0"
         style="fill:#f79910" /><path
         class="st0"
         d="m 230.06,140.62 -9.37,0 c -2.75,0 -4.97,-2.23 -4.97,-4.97 l 0,-85.97 c 0,-2.75 2.23,-4.97 4.97,-4.97 l 9.37,0 c 2.75,0 4.97,2.23 4.97,4.97 l 0,85.97 c 0,2.75 -2.22,4.97 -4.97,4.97 z"
         id="path15"
         inkscape:connector-curvature="0"
         style="fill:#f79910" /><path
         d="m 322.27,56.49 -7.49,7.46 c -1.77,1.76 -4.57,1.92 -6.54,0.4 -1.08,-0.83 -2.13,-1.49 -3.15,-1.99 -2.03,-0.98 -4.68,-1.48 -7.95,-1.48 -3.45,0 -6.64,0.89 -9.56,2.68 -2.93,1.79 -5.25,4.29 -6.98,7.52 -1.73,3.23 -2.59,7 -2.59,11.31 l 0,53.27 c 0,2.75 -2.23,4.97 -4.97,4.97 l -9.37,0 c -2.75,0 -4.97,-2.23 -4.97,-4.97 l 0,-85.98 c 0,-2.75 2.23,-4.97 4.97,-4.97 l 10.95,0 c 1.67,0 3.03,1.36 3.03,3.03 l 0,0 c 0,2.53 2.88,3.9 4.89,2.36 1.7,-1.3 3.62,-2.45 5.78,-3.43 4.59,-2.11 9.53,-3.16 14.83,-3.16 4.74,0 8.92,0.7 12.52,2.09 2.06,0.8 4.07,1.91 6.04,3.34 2.46,1.8 2.72,5.4 0.56,7.55 z"
         id="path17"
         inkscape:connector-curvature="0" /></g><g
       id="g19"><path
         class="st0"
         d="m 224.21,3.67 c -0.28,0.04 -0.3,0.33 0.01,0.42 1.21,0.42 2.32,1.25 3.11,2.44 1.92,2.92 1.11,6.77 -1.88,8.18 -0.18,0.09 -0.38,-0.08 -0.32,-0.27 0.16,-0.45 0.25,-0.94 0.25,-1.45 0,-1.57 -0.85,-2.95 -2.11,-3.69 -0.18,-0.11 -0.39,0.08 -0.32,0.28 0.22,0.66 0.16,1.46 -0.23,2.18 -0.41,0.77 -0.75,1.55 -2.6,1.77 -1.61,0.22 -2.69,0.45 -4.08,1.46 -0.03,0.02 -0.05,0.04 -0.08,0.06 -0.26,0.19 -0.51,0.4 -0.75,0.61 -0.06,0.05 -0.12,0.11 -0.17,0.16 -0.21,0.2 -0.42,0.42 -0.62,0.64 -0.05,0.06 -0.11,0.12 -0.16,0.18 -0.21,0.26 -0.42,0.52 -0.61,0.8 -0.02,0.03 -0.04,0.05 -0.06,0.08 -0.21,0.31 -0.4,0.64 -0.58,0.98 -0.02,0.04 -0.04,0.09 -0.06,0.13 -0.14,0.28 -0.27,0.57 -0.39,0.87 -0.04,0.11 -0.08,0.22 -0.12,0.32 -0.09,0.24 -0.16,0.49 -0.23,0.74 -0.03,0.12 -0.07,0.25 -0.09,0.38 -0.06,0.26 -0.1,0.52 -0.14,0.78 -0.02,0.12 -0.04,0.23 -0.05,0.35 -0.04,0.38 -0.07,0.77 -0.07,1.16 0,3.95 2.21,7.37 5.43,9.02 0.05,0.03 0.12,0.06 0.19,0.1 0.17,0.08 0.34,0.17 0.52,0.24 1.82,0.79 3.83,1.23 5.94,1.23 3.49,0 6.7,-1.18 9.26,-3.17 3.55,-2.76 5.84,-7.07 5.84,-11.92 0,-8.23 -6.62,-14.92 -14.83,-15.06 z m 7.46,18.53 c -0.82,2.9 -3.19,4.93 -5.96,5.47 -0.97,0.27 -2.06,0.29 -3.16,-0.02 -0.08,-0.02 -0.15,-0.05 -0.23,-0.08 -0.07,-0.02 -0.13,-0.03 -0.2,-0.05 l 0,-0.02 c -2.48,-0.9 -3.96,-3.24 -3.35,-5.4 0.65,-2.29 3.39,-3.51 6.13,-2.74 1.28,0.36 2.33,1.1 3.02,2.02 1.38,-0.59 2.48,-1.77 2.92,-3.32 0.16,-0.55 0.21,-1.1 0.19,-1.64 0.93,1.71 1.22,3.76 0.64,5.78 z"
         id="path21"
         inkscape:connector-curvature="0"
         style="fill:#f79910" /><path
         class="st0"
         d="m 220.58,7.28 c 0.5,-0.13 0.94,-0.36 1.33,-0.66 0.15,-0.13 0.08,-0.38 -0.13,-0.4 -1.63,0.02 -3.12,-1.05 -3.55,-2.7 -0.3,-1.14 0,-2.29 0.68,-3.15 0.13,-0.17 -0.02,-0.42 -0.23,-0.36 -2,0.53 -3.2,2.58 -2.68,4.58 0.52,2.01 2.57,3.21 4.58,2.69 z"
         id="path23"
         inkscape:connector-curvature="0"
         style="fill:#f79910" /></g></g></svg>