<?xml version="1.0" encoding="UTF-8" standalone="no"?>
<svg
   xmlns:dc="http://purl.org/dc/elements/1.1/"
   xmlns:cc="http://creativecommons.org/ns#"
   xmlns:rdf="http://www.w3.org/1999/02/22-rdf-syntax-ns#"
   xmlns:svg="http://www.w3.org/2000/svg"
   xmlns="http://www.w3.org/2000/svg"
   id="svg2"
   version="1.1"
   xml:space="preserve"
   width="134.4725"
   height="57.373001"
   viewBox="0 0 134.4725 57.373001"><metadata
     id="metadata8"><rdf:RDF><cc:Work
         rdf:about=""><dc:format>image/svg+xml</dc:format><dc:type
           rdf:resource="http://purl.org/dc/dcmitype/StillImage" /><dc:title></dc:title></cc:Work></rdf:RDF></metadata><defs
     id="defs6"><clipPath
       clipPathUnits="userSpaceOnUse"
       id="clipPath40"><path
         d="m 768.645,568.305 c -9.579,0 -14.5,-26.141 -13.989,-50.684 -0.011,0 -0.027,0 -0.043,0 0.516,-21.543 5.282,-42.187 14.723,-42.187 36.238,0 77.527,34.171 77.527,46.425 0,3.067 -3.125,8.957 -7.3,13.614 -0.012,0 -0.02,0 -0.028,0 -0.281,0.332 -0.586,0.664 -0.883,0.996 -12.91,14.406 -39.691,31.836 -70.007,31.836 z"
         id="path42" /></clipPath><linearGradient
       x1="0"
       y1="0"
       x2="1"
       y2="0"
       gradientUnits="userSpaceOnUse"
       gradientTransform="matrix(-63.2713,109.589,109.589,63.2713,826.774,463.817)"
       spreadMethod="pad"
       id="linearGradient44"><stop
         style="stop-opacity:1;stop-color:#f35f30"
         offset="0"
         id="stop46" /><stop
         style="stop-opacity:1;stop-color:#f35f30"
         offset="0.375336"
         id="stop48" /><stop
         style="stop-opacity:1;stop-color:#f9ab83"
         offset="0.949234"
         id="stop50" /><stop
         style="stop-opacity:1;stop-color:#f9ab83"
         offset="0.949234"
         id="stop52" /><stop
         style="stop-opacity:1;stop-color:#f9ab83"
         offset="1"
         id="stop54" /></linearGradient><clipPath
       clipPathUnits="userSpaceOnUse"
       id="clipPath62"><path
         d="m 839.535,535.465 c 0.008,0 0.012,0.008 0.02,0.008 l 0,0 -0.02,-0.008 z m -84.883,-17.844 c 27.227,-6.394 56.293,0.801 84.457,17.59 l 0,0 c 0.145,0.086 0.286,0.164 0.426,0.254 l 0,0 c -0.281,0.332 -0.574,0.664 -0.875,0.996 l 0,0 c -12.906,14.402 -39.707,31.844 -70.023,31.844 l 0,0 c -9.574,0 -14.496,-26.141 -13.985,-50.684"
         id="path64" /></clipPath><linearGradient
       x1="0"
       y1="0"
       x2="1"
       y2="0"
       gradientUnits="userSpaceOnUse"
       gradientTransform="matrix(-63.2713,109.589,109.589,63.2713,831.671,466.644)"
       spreadMethod="pad"
       id="linearGradient66"><stop
         style="stop-opacity:1;stop-color:#f35f30"
         offset="0"
         id="stop68" /><stop
         style="stop-opacity:1;stop-color:#f35f30"
         offset="0.375336"
         id="stop70" /><stop
         style="stop-opacity:1;stop-color:#f9ab83"
         offset="0.949234"
         id="stop72" /><stop
         style="stop-opacity:1;stop-color:#f9ab83"
         offset="0.949234"
         id="stop74" /><stop
         style="stop-opacity:1;stop-color:#f9ab83"
         offset="1"
         id="stop76" /></linearGradient><clipPath
       clipPathUnits="userSpaceOnUse"
       id="clipPath84"><path
         d="m 754.625,517.633 c 0.512,-21.543 5.277,-42.207 14.723,-42.207 l 0,0 c 36.238,0 77.523,34.168 77.523,46.426 l 0,0 c 0,3.054 -3.137,8.964 -7.316,13.621 l 0,0 c -28.309,-16.981 -57.551,-24.285 -84.93,-17.84"
         id="path86" /></clipPath><linearGradient
       x1="0"
       y1="0"
       x2="1"
       y2="0"
       gradientUnits="userSpaceOnUse"
       gradientTransform="matrix(92.2467,0,0,-92.2467,754.623,505.422)"
       spreadMethod="pad"
       id="linearGradient88"><stop
         style="stop-opacity:1;stop-color:#f46a37"
         offset="0"
         id="stop90" /><stop
         style="stop-opacity:1;stop-color:#f35f30"
         offset="0.533798"
         id="stop92" /><stop
         style="stop-opacity:1;stop-color:#f35f30"
         offset="0.533798"
         id="stop94" /><stop
         style="stop-opacity:1;stop-color:#f35f30"
         offset="1"
         id="stop96" /></linearGradient></defs><path
     d="M 27.749,5.324625 C 27.673875,5.92525 27.3735,6.2255 26.7735,6.2255 c -0.07475,0 -0.07475,-0.075625 -0.07475,-0.075625 -1.424875,-0.224625 -4.125,-0.7495 -6.899375,-0.7495 -1.95025,0 -3.44975,0.224625 -4.5,1.04975 -0.9,0.675375 -1.424875,1.875 -1.424875,3.82575 l 0,6.7495 10.8745,0 c 0.600125,0 1.049875,0.450125 1.049875,1.124 l 0,3.225125 c 0,0.67525 -0.44975,1.04975 -1.049875,1.04975 l -10.8745,0 0,32.849125 c 0,0.675375 -0.44975,1.1255 -1.125,1.1255 l -4.650375,0 c -0.674325,0 -1.1997125,-0.450125 -1.1997125,-1.1255 l 0,-32.849125 -5.7744125,0 C 0.4497075,22.42425 0,22.04975 0,21.3745 l 0,-3.225125 c 0,-0.673875 0.4497075,-1.124 1.125,-1.124 l 5.7744125,0 0,-6.376 C 6.8994125,3.30075 10.574225,0 18.224625,0 c 4.19925,0 7.42425,0.750875 8.999,1.1255 0.600625,0.150375 0.975125,0.524875 0.975125,1.04975 l 0,0.075625 -0.44975,3.07375"
     style="fill:#040606;fill-opacity:1;fill-rule:nonzero;stroke:none"
     id="path14" /><path
     d="m 46.273875,55.349125 c 0,0.599625 -0.449625,0.824125 -0.6,0.824125 -0.600125,0.300375 -2.69975,0.975125 -5.69925,0.975125 -5.025375,0 -8.17525,-2.6245 -8.17525,-8.2495 l 0,-46.723625 c 0,-0.673875 0.375375,-0.974125 1.05025,-1.04975 L 37.724125,0 37.94925,0 c 0.600125,0 0.825125,0.450625 0.825125,1.04975 l 0,47.548875 c 0,2.700125 1.799875,3.149375 3.299875,3.149375 1.05025,0 2.17475,-0.224625 2.625,-0.30025 0.149875,0 0.224625,-0.07425 0.29925,-0.07425 0.300875,0 0.525875,0.149875 0.600125,0.67475 l 0.67525,3.07525 0,0.225625"
     style="fill:#040606;fill-opacity:1;fill-rule:nonzero;stroke:none"
     id="path16" /><path
     d="M 77.773,36.074125 65.0235,38.17375 c -3.44975,0.525 -6.9,0.82525 -6.9,6.45025 0,7.124 5.775,7.57475 10.349125,7.57475 3.225625,0 6.525375,-0.375 9.300375,-1.276 l 0,-14.848625 z m 0.449625,20.249125 c -2.25,0.524875 -5.849625,1.04975 -9.899375,1.04975 -6.82475,0 -17.398875,-0.3745 -17.398875,-12.524375 0,-9.899875 5.699125,-10.499 12.749,-11.69925 l 14.099625,-2.32425 0,-3.30075 c 0,-2.32425 -0.1505,-4.1245 -2.625,-5.100125 -1.349625,-0.524875 -3.44975,-0.7495 -6.600125,-0.7495 -5.624,0 -10.724125,1.42575 -13.57425,2.099625 -0.149875,0.07563 -0.3745,0.07563 -0.524875,0.07563 -0.30025,0 -0.674875,-0.15125 -0.75,-0.6005 l -0.75,-3.674375 C 52.8735,19.4995 52.8735,19.42525 52.8735,19.3505 c 0,-0.524875 0.525375,-0.825125 0.82525,-0.900875 2.32475,-0.825125 8.774375,-2.399875 15.82475,-2.399875 5.399875,0 8.849,0.7495 11.099,1.95075 3.9005,2.17425 4.049875,5.8495 4.049875,9.67425 l 0,20.923875 c 0,5.324625 -1.274375,6.524875 -6.44975,7.724625"
     style="fill:#f35f30;fill-opacity:1;fill-rule:nonzero;stroke:none"
     id="path18" /><path
     d="m 101.623,56.398875 -4.7255,0 c -0.674875,0 -1.124,-0.450125 -1.124,-1.1255 l 0,-36.972625 c 0,-0.67625 0.449125,-1.1255 1.124,-1.1255 l 4.7255,0 c 0.67488,0 1.12413,0.44925 1.12413,1.1255 l 0,36.972625 c 0,0.675375 -0.44925,1.1255 -1.12413,1.1255"
     style="fill:#f35f30;fill-opacity:1;fill-rule:nonzero;stroke:none"
     id="path20" /><path
     d="m 133.64625,21.899375 c -4.79875,0 -8.84937,0.376 -12.52375,1.350125 l 0,32.023875 c 0,0.675375 -0.375,1.1255 -1.12538,1.1255 l -4.65,0 c -0.14987,0 -1.19962,-0.450125 -1.19962,-1.1255 l 0,-31.574625 c 0,-3.1495 0.89938,-4.123625 3.75,-5.32475 3.52537,-1.423375 9.9,-2.32425 13.8,-2.32425 l 1.2,0 c 0.14875,0 0.29875,0.07575 0.59875,0.07575 0.30125,0.07463 0.97625,0.2245 0.97625,1.1245 l 0,3.67525 c 0,0.524875 -0.15,0.974125 -0.82625,0.974125"
     style="fill:#040606;fill-opacity:1;fill-rule:nonzero;stroke:none"
     id="path22" /><g
     transform="matrix(0.125,0,0,-0.125,0,71.38375)"
     id="g36"><g
       id="g38"
       clip-path="url(#clipPath40)"><path
         d="m 768.645,568.305 c -9.579,0 -14.5,-26.141 -13.989,-50.684 -0.011,0 -0.027,0 -0.043,0 0.516,-21.543 5.282,-42.187 14.723,-42.187 36.238,0 77.527,34.171 77.527,46.425 0,3.067 -3.125,8.957 -7.3,13.614 -0.012,0 -0.02,0 -0.028,0 -0.281,0.332 -0.586,0.664 -0.883,0.996 -12.91,14.406 -39.691,31.836 -70.007,31.836"
         style="fill:url(#linearGradient44);fill-opacity:1;fill-rule:nonzero;stroke:none"
         id="path56" /></g></g><g
     transform="matrix(0.125,0,0,-0.125,0,71.38375)"
     id="g58"><g
       id="g60"
       clip-path="url(#clipPath62)"><path
         d="m 839.535,535.465 c 0.008,0 0.012,0.008 0.02,0.008 l 0,0 -0.02,-0.008 z m -84.883,-17.844 c 27.227,-6.394 56.293,0.801 84.457,17.59 l 0,0 c 0.145,0.086 0.286,0.164 0.426,0.254 l 0,0 c -0.281,0.332 -0.574,0.664 -0.875,0.996 l 0,0 c -12.906,14.402 -39.707,31.844 -70.023,31.844 l 0,0 c -9.574,0 -14.496,-26.141 -13.985,-50.684"
         style="fill:url(#linearGradient66);fill-opacity:1;fill-rule:nonzero;stroke:none"
         id="path78" /></g></g><g
     transform="matrix(0.125,0,0,-0.125,0,71.38375)"
     id="g80"><g
       id="g82"
       clip-path="url(#clipPath84)"><path
         d="m 754.625,517.633 c 0.512,-21.543 5.277,-42.207 14.723,-42.207 l 0,0 c 36.238,0 77.523,34.168 77.523,46.426 l 0,0 c 0,3.054 -3.137,8.964 -7.316,13.621 l 0,0 c -28.309,-16.981 -57.551,-24.285 -84.93,-17.84"
         style="fill:url(#linearGradient88);fill-opacity:1;fill-rule:nonzero;stroke:none"
         id="path98" /></g></g></svg>