<?xml version="1.0" encoding="utf-8"?>
<!-- Generator: Adobe Illustrator 24.0.1, SVG Export Plug-In . SVG Version: 6.00 Build 0)  -->
<svg version="1.1" id="Ebene_1" xmlns="http://www.w3.org/2000/svg" xmlns:xlink="http://www.w3.org/1999/xlink" x="0px" y="0px"
	 viewBox="0 0 323.74 141.73" style="enable-background:new 0 0 323.74 141.73;" xml:space="preserve">
<style type="text/css">
	.st0{fill:#F79910;}
</style>
<g>
	<g>
		<path d="M44.37,61.16h-9.09c-2.75,0-4.97,2.23-4.97,4.97v69.52c0,2.75-2.23,4.97-4.97,4.97h-9.37c-2.75,0-4.97-2.23-4.97-4.97
			V66.13c0-2.75-2.23-4.97-4.97-4.97H4.97C2.23,61.16,0,58.93,0,56.19v-4.84c0-2.75,2.23-4.97,4.97-4.97h1.05
			c2.75,0,4.97-2.23,4.97-4.97v-9.81c0-4.74,0.97-9.15,2.91-13.21c1.94-4.07,4.88-7.31,8.82-9.75c3.94-2.43,8.78-3.65,14.51-3.65
			h7.13c2.75,0,4.97,2.23,4.97,4.97v6.51c0,2.75-2.23,4.97-4.97,4.97h-3.53c-7.02,0-10.53,3.73-10.53,11.18v8.8
			c0,2.75,2.23,4.97,4.97,4.97h9.09c2.75,0,4.97,2.23,4.97,4.97v4.84C49.34,58.93,47.12,61.16,44.37,61.16z"/>
		<path d="M104.43,135.65c0,2.75-2.23,4.97-4.97,4.97h-6.95c-8.68,0-15.23-2.51-19.64-7.53c-4.4-5.02-6.61-11.35-6.61-18.99V10.87
			c0-2.75,2.23-4.97,4.97-4.97h9.37c2.75,0,4.97,2.23,4.97,4.97v102.12c0,3.82,0.77,6.64,2.31,8.45c1.54,1.82,4.22,2.73,8.04,2.73
			h3.53c2.75,0,4.97,2.23,4.97,4.97V135.65z"/>
		<path class="st0" d="M188.09,140.62h-11.24c-1.51,0-2.73-1.22-2.73-2.73l0,0c0-2.24-2.55-3.51-4.35-2.18
			c-2.16,1.61-4.38,2.86-6.65,3.75c-3.82,1.51-8.65,2.26-14.51,2.26c-5.79,0-10.81-0.73-15.06-2.17c-4.25-1.45-7.82-3.62-10.72-6.52
			c-5.05-5.24-7.58-12.1-7.58-20.61c0-5.48,1.26-10.3,3.79-14.46c2.52-4.16,6.27-7.39,11.23-9.7c4.96-2.31,10.98-3.47,18.06-3.47
			h20.44c2.75,0,4.97-2.23,4.97-4.97V78c0-6.13-1.66-10.65-4.99-13.53s-8.65-4.33-15.99-4.33c-5.36,0-9.53,0.68-12.52,2.03
			c-1.84,0.83-3.63,2.06-5.37,3.69c-1.93,1.81-4.91,1.86-6.84,0.05l-5.37-5.05c-2.11-1.99-2.05-5.32,0.06-7.31
			c3.35-3.16,6.93-5.48,10.74-6.96c5.23-2.05,11.92-3.07,20.05-3.07c26.36,0,39.55,11,39.55,32.99v59.16
			C193.06,138.4,190.83,140.62,188.09,140.62z M173.75,105.97v-2.79c0-2.75-2.23-4.97-4.97-4.97H151.2c-5.61,0-9.87,1.2-12.8,3.6
			c-2.93,2.4-4.39,5.82-4.39,10.26c0,9.05,5.85,13.58,17.56,13.58c4.13,0,7.58-0.36,10.35-1.06c2.77-0.71,5.33-2.17,7.67-4.39
			C172.36,117.43,173.75,112.69,173.75,105.97z"/>
		<path class="st0" d="M230.06,140.62h-9.37c-2.75,0-4.97-2.23-4.97-4.97V49.68c0-2.75,2.23-4.97,4.97-4.97h9.37
			c2.75,0,4.97,2.23,4.97,4.97v85.97C235.03,138.4,232.81,140.62,230.06,140.62z"/>
		<path d="M322.27,56.49l-7.49,7.46c-1.77,1.76-4.57,1.92-6.54,0.4c-1.08-0.83-2.13-1.49-3.15-1.99c-2.03-0.98-4.68-1.48-7.95-1.48
			c-3.45,0-6.64,0.89-9.56,2.68c-2.93,1.79-5.25,4.29-6.98,7.52c-1.73,3.23-2.59,7-2.59,11.31v53.27c0,2.75-2.23,4.97-4.97,4.97
			h-9.37c-2.75,0-4.97-2.23-4.97-4.97V49.68c0-2.75,2.23-4.97,4.97-4.97h10.95c1.67,0,3.03,1.36,3.03,3.03v0
			c0,2.53,2.88,3.9,4.89,2.36c1.7-1.3,3.62-2.45,5.78-3.43c4.59-2.11,9.53-3.16,14.83-3.16c4.74,0,8.92,0.7,12.52,2.09
			c2.06,0.8,4.07,1.91,6.04,3.34C324.17,50.74,324.43,54.34,322.27,56.49z"/>
	</g>
	<g>
		<path class="st0" d="M224.21,3.67c-0.28,0.04-0.3,0.33,0.01,0.42c1.21,0.42,2.32,1.25,3.11,2.44c1.92,2.92,1.11,6.77-1.88,8.18
			c-0.18,0.09-0.38-0.08-0.32-0.27c0.16-0.45,0.25-0.94,0.25-1.45c0-1.57-0.85-2.95-2.11-3.69c-0.18-0.11-0.39,0.08-0.32,0.28
			c0.22,0.66,0.16,1.46-0.23,2.18c-0.41,0.77-0.75,1.55-2.6,1.77c-1.61,0.22-2.69,0.45-4.08,1.46c-0.03,0.02-0.05,0.04-0.08,0.06
			c-0.26,0.19-0.51,0.4-0.75,0.61c-0.06,0.05-0.12,0.11-0.17,0.16c-0.21,0.2-0.42,0.42-0.62,0.64c-0.05,0.06-0.11,0.12-0.16,0.18
			c-0.21,0.26-0.42,0.52-0.61,0.8c-0.02,0.03-0.04,0.05-0.06,0.08c-0.21,0.31-0.4,0.64-0.58,0.98c-0.02,0.04-0.04,0.09-0.06,0.13
			c-0.14,0.28-0.27,0.57-0.39,0.87c-0.04,0.11-0.08,0.22-0.12,0.32c-0.09,0.24-0.16,0.49-0.23,0.74c-0.03,0.12-0.07,0.25-0.09,0.38
			c-0.06,0.26-0.1,0.52-0.14,0.78c-0.02,0.12-0.04,0.23-0.05,0.35c-0.04,0.38-0.07,0.77-0.07,1.16c0,3.95,2.21,7.37,5.43,9.02
			c0.05,0.03,0.12,0.06,0.19,0.1c0.17,0.08,0.34,0.17,0.52,0.24c1.82,0.79,3.83,1.23,5.94,1.23c3.49,0,6.7-1.18,9.26-3.17
			c3.55-2.76,5.84-7.07,5.84-11.92C239.04,10.5,232.42,3.81,224.21,3.67z M231.67,22.2c-0.82,2.9-3.19,4.93-5.96,5.47
			c-0.97,0.27-2.06,0.29-3.16-0.02c-0.08-0.02-0.15-0.05-0.23-0.08c-0.07-0.02-0.13-0.03-0.2-0.05l0-0.02
			c-2.48-0.9-3.96-3.24-3.35-5.4c0.65-2.29,3.39-3.51,6.13-2.74c1.28,0.36,2.33,1.1,3.02,2.02c1.38-0.59,2.48-1.77,2.92-3.32
			c0.16-0.55,0.21-1.1,0.19-1.64C231.96,18.13,232.25,20.18,231.67,22.2z"/>
		<path class="st0" d="M220.58,7.28c0.5-0.13,0.94-0.36,1.33-0.66c0.15-0.13,0.08-0.38-0.13-0.4c-1.63,0.02-3.12-1.05-3.55-2.7
			c-0.3-1.14,0-2.29,0.68-3.15c0.13-0.17-0.02-0.42-0.23-0.36c-2,0.53-3.2,2.58-2.68,4.58C216.52,6.6,218.57,7.8,220.58,7.28z"/>
	</g>
</g>
</svg>
