<?xml version="1.0" encoding="utf-8"?><!-- Uploaded to: SVG Repo, www.svgrepo.com, Generator: SVG Repo Mixer Tools -->
<svg width="800px" height="800px" viewBox="0 0 24 24" xmlns="http://www.w3.org/2000/svg"><rect width="24" height="24" fill="none"/><path d="M20,6H4A2,2,0,0,0,2,8v8a2,2,0,0,0,2,2H20a2,2,0,0,0,2-2V8A2,2,0,0,0,20,6ZM9.29,14.8,9,13.73H7.16L6.87,14.8H5.17L7,9.07H9.09L11,14.8Zm6.34-3.14a1.7,1.7,0,0,1-.36.64,1.82,1.82,0,0,1-.67.44,2.75,2.75,0,0,1-1,.17h-.44V14.8H11.6V9.09h2a2.43,2.43,0,0,1,1.62.47,1.67,1.67,0,0,1,.55,1.35A2.36,2.36,0,0,1,15.63,11.66Zm2.58,3.14H16.66V9.09h1.55ZM8.45,11.53l.24.93H7.48l.24-.93c0-.13.08-.28.12-.47s.09-.38.13-.57a4.63,4.63,0,0,0,.1-.48c0,.13.07.29.11.5l.15.58Zm5.59-1a.57.57,0,0,1,.16.43.75.75,0,0,1-.11.42.59.59,0,0,1-.27.22.9.9,0,0,1-.37.07h-.31V10.34h.4A.63.63,0,0,1,14,10.51Z" fill-rule="evenodd"/></svg>