<?xml version="1.0" encoding="UTF-8" standalone="no"?>
<!-- Created with Inkscape (http://www.inkscape.org/) -->

<svg
   width="86.12516"
   height="83.97332"
   viewBox="0 0 22.787282 22.217941"
   version="1.1"
   id="svg1"
   inkscape:version="1.3.2 (091e20ef0f, 2023-11-25)"
   sodipodi:docname="github.svg"
   xml:space="preserve"
   xmlns:inkscape="http://www.inkscape.org/namespaces/inkscape"
   xmlns:sodipodi="http://sodipodi.sourceforge.net/DTD/sodipodi-0.dtd"
   xmlns="http://www.w3.org/2000/svg"
   xmlns:svg="http://www.w3.org/2000/svg"><sodipodi:namedview
     id="namedview1"
     pagecolor="#505050"
     bordercolor="#eeeeee"
     borderopacity="1"
     inkscape:showpageshadow="0"
     inkscape:pageopacity="0"
     inkscape:pagecheckerboard="0"
     inkscape:deskcolor="#505050"
     inkscape:document-units="px"
     inkscape:zoom="0.58541665"
     inkscape:cx="28.185054"
     inkscape:cy="429.60855"
     inkscape:window-width="1920"
     inkscape:window-height="1011"
     inkscape:window-x="0"
     inkscape:window-y="0"
     inkscape:window-maximized="1"
     inkscape:current-layer="layer1" /><defs
     id="defs1"><rect
       x="203.51459"
       y="1150.095"
       width="367.98785"
       height="99.33934"
       id="rect47" /><rect
       x="203.51459"
       y="1150.095"
       width="433.75299"
       height="97.631157"
       id="rect48" /><rect
       x="203.51459"
       y="1150.095"
       width="382.71518"
       height="121.78854"
       id="rect49" /><rect
       x="203.51459"
       y="1150.095"
       width="433.75299"
       height="97.631157"
       id="rect50" /><rect
       x="203.51459"
       y="1150.095"
       width="433.75299"
       height="97.631157"
       id="rect51" /><rect
       x="203.51459"
       y="1150.095"
       width="385.43823"
       height="103.11166"
       id="rect52" /><rect
       x="203.51459"
       y="1150.095"
       width="433.75299"
       height="97.631157"
       id="rect58" /><rect
       x="203.51459"
       y="1150.095"
       width="553.33203"
       height="91.591812"
       id="rect59" /><rect
       x="203.51459"
       y="1150.095"
       width="433.75299"
       height="97.631157"
       id="rect60" /></defs><g
     inkscape:label="Layer 1"
     inkscape:groupmode="layer"
     id="layer1"
     transform="translate(-290.86611,-87.021105)"><g
       style="fill:#f79910;fill-opacity:1;stroke:currentColor;stroke-width:0"
       id="g35"
       transform="matrix(0.0459421,0,0,0.0459421,290.86611,86.653568)"><path
         d="m 165.9,397.4 c 0,2 -2.3,3.6 -5.2,3.6 -3.3,0.3 -5.6,-1.3 -5.6,-3.6 0,-2 2.3,-3.6 5.2,-3.6 3,-0.3 5.6,1.3 5.6,3.6 z m -31.1,-4.5 c -0.7,2 1.3,4.3 4.3,4.9 2.6,1 5.6,0 6.2,-2 0.6,-2 -1.3,-4.3 -4.3,-5.2 -2.6,-0.7 -5.5,0.3 -6.2,2.3 z m 44.2,-1.7 c -2.9,0.7 -4.9,2.6 -4.6,4.9 0.3,2 2.9,3.3 5.9,2.6 2.9,-0.7 4.9,-2.6 4.6,-4.6 -0.3,-1.9 -3,-3.2 -5.9,-2.9 z M 244.8,8 C 106.1,8 0,113.3 0,252 c 0,110.9 69.8,205.8 169.5,239.2 12.8,2.3 17.3,-5.6 17.3,-12.1 0,-6.2 -0.3,-40.4 -0.3,-61.4 0,0 -70,15 -84.7,-29.8 0,0 -11.4,-29.1 -27.8,-36.6 0,0 -22.9,-15.7 1.6,-15.4 0,0 24.9,2 38.6,25.8 21.9,38.6 58.6,27.5 72.9,20.9 2.3,-16 8.8,-27.1 16,-33.7 -55.9,-6.2 -112.3,-14.3 -112.3,-110.5 0,-27.5 7.6,-41.3 23.6,-58.9 -2.6,-6.5 -11.1,-33.3 2.6,-67.9 20.9,-6.5 69,27 69,27 20,-5.6 41.5,-8.5 62.8,-8.5 21.3,0 42.8,2.9 62.8,8.5 0,0 48.1,-33.6 69,-27 13.7,34.7 5.2,61.4 2.6,67.9 16,17.7 25.8,31.5 25.8,58.9 0,96.5 -58.9,104.2 -114.8,110.5 9.2,7.9 17,22.9 17,46.4 0,33.7 -0.3,75.4 -0.3,83.6 0,6.5 4.6,14.4 17.3,12.1 C 428.2,457.8 496,362.9 496,252 496,113.3 383.5,8 244.8,8 Z M 97.2,352.9 c -1.3,1 -1,3.3 0.7,5.2 1.6,1.6 3.9,2.3 5.2,1 1.3,-1 1,-3.3 -0.7,-5.2 -1.6,-1.6 -3.9,-2.3 -5.2,-1 z m -10.8,-8.1 c -0.7,1.3 0.3,2.9 2.3,3.9 1.6,1 3.6,0.7 4.3,-0.7 0.7,-1.3 -0.3,-2.9 -2.3,-3.9 -2,-0.6 -3.6,-0.3 -4.3,0.7 z m 32.4,35.6 c -1.6,1.3 -1,4.3 1.3,6.2 2.3,2.3 5.2,2.6 6.5,1 1.3,-1.3 0.7,-4.3 -1.3,-6.2 -2.2,-2.3 -5.2,-2.6 -6.5,-1 z m -11.4,-14.7 c -1.6,1 -1.6,3.6 0,5.9 1.6,2.3 4.3,3.3 5.6,2.3 1.6,-1.3 1.6,-3.9 0,-6.2 -1.4,-2.3 -4,-3.3 -5.6,-2 z"
         id="path1"
         style="fill:#f79910;fill-opacity:1" /></g></g><style
     type="text/css"
     id="style3">
	.st0{fill:#F79910;}
</style></svg>
