<?xml version="1.0" encoding="utf-8"?>
<!-- Uploaded to: SVG Repo, www.svgrepo.com, Generator: SVG Repo Mixer Tools -->
<svg width="800px" height="800px" viewBox="0 0 24 24" xmlns="http://www.w3.org/2000/svg">
    <g fill="#494c4e" fill-rule="evenodd">
        <path d="M23.37.67l-.02-.02A2.24 2.24 0 0 0 21.77 0C16.95.01 13.86 1.33 12 2.6A13.365 13.365 0 0 0 8.61.94 20.711 20.711 0 0 0 2.22 0 2.251 2.251 0 0 0 .63.67C.226 1.085 0 1.641 0 2.22v19.56c.005.598.246 1.169.67 1.59.421.4.979.626 1.56.63 4.82-.01 7.91-1.33 9.77-2.6 1.86 1.27 4.95 2.59 9.78 2.6a2.315 2.315 0 0 0 1.59-.67c.402-.416.628-.971.63-1.55V2.22c0-.579-.226-1.135-.63-1.55zM11 19.67C9.42 20.78 6.68 21.99 2.22 22a.468.468 0 0 1-.14-.04.276.276 0 0 1-.08-.18V2.22a.273.273 0 0 1 .06-.16c.043-.04.1-.062.16-.06a18.453 18.453 0 0 1 5.76.84A10.96 10.96 0 0 1 11 4.35v15.32zm11 2.11a.394.394 0 0 1-.04.14.344.344 0 0 1-.18.08c-4.46-.01-7.2-1.22-8.78-2.33V4.33c1.58-1.11 4.32-2.32 8.78-2.33a.269.269 0 0 1 .15.05c.04.048.065.107.07.17v19.56z"/>
        <path d="M8 13H5a1 1 0 0 1 0-2h3a1 1 0 0 1 0 2zm0-4a1 1 0 0 1-.316-.052l-3-1a1.001 1.001 0 0 1 .633-1.9l3 1A1 1 0 0 1 8 9zm-3 9a1 1 0 0 1-.316-1.948l3-1a1.001 1.001 0 0 1 .633 1.9l-3 1A1 1 0 0 1 5 18zm14-5h-3a1 1 0 0 1 0-2h3a1 1 0 0 1 0 2zm-3-4a1 1 0 0 1-.316-1.949l3-1a1.001 1.001 0 0 1 .633 1.9l-3 1A1 1 0 0 1 16 9zm3 9a1 1 0 0 1-.316-.052l-3-1a1.001 1.001 0 0 1 .633-1.9l3 1A1 1 0 0 1 19 18z"/>
    </g>
</svg>