<?xml version="1.0" encoding="UTF-8" standalone="no"?>
<!-- Created with Inkscape (http://www.inkscape.org/) -->

<svg
   width="91.696754"
   height="83.973335"
   viewBox="0 0 24.261432 22.217945"
   version="1.1"
   id="svg1"
   inkscape:version="1.3.2 (091e20ef0f, 2023-11-25)"
   sodipodi:docname="hugging_face.svg"
   xml:space="preserve"
   xmlns:inkscape="http://www.inkscape.org/namespaces/inkscape"
   xmlns:sodipodi="http://sodipodi.sourceforge.net/DTD/sodipodi-0.dtd"
   xmlns="http://www.w3.org/2000/svg"
   xmlns:svg="http://www.w3.org/2000/svg"><sodipodi:namedview
     id="namedview1"
     pagecolor="#505050"
     bordercolor="#eeeeee"
     borderopacity="1"
     inkscape:showpageshadow="0"
     inkscape:pageopacity="0"
     inkscape:pagecheckerboard="0"
     inkscape:deskcolor="#505050"
     inkscape:document-units="px"
     inkscape:zoom="0.20697604"
     inkscape:cx="-2099.2768"
     inkscape:cy="55.561986"
     inkscape:window-width="1920"
     inkscape:window-height="1011"
     inkscape:window-x="0"
     inkscape:window-y="0"
     inkscape:window-maximized="1"
     inkscape:current-layer="layer1" /><defs
     id="defs1"><rect
       x="203.51459"
       y="1150.095"
       width="367.98785"
       height="99.33934"
       id="rect47" /><rect
       x="203.51459"
       y="1150.095"
       width="433.75299"
       height="97.631157"
       id="rect48" /><rect
       x="203.51459"
       y="1150.095"
       width="382.71518"
       height="121.78854"
       id="rect49" /><rect
       x="203.51459"
       y="1150.095"
       width="433.75299"
       height="97.631157"
       id="rect50" /><rect
       x="203.51459"
       y="1150.095"
       width="433.75299"
       height="97.631157"
       id="rect51" /><rect
       x="203.51459"
       y="1150.095"
       width="385.43823"
       height="103.11166"
       id="rect52" /><rect
       x="203.51459"
       y="1150.095"
       width="433.75299"
       height="97.631157"
       id="rect58" /><rect
       x="203.51459"
       y="1150.095"
       width="553.33203"
       height="91.591812"
       id="rect59" /><rect
       x="203.51459"
       y="1150.095"
       width="433.75299"
       height="97.631157"
       id="rect60" /></defs><g
     inkscape:label="Layer 1"
     inkscape:groupmode="layer"
     id="layer1"
     transform="translate(-416.88483,-87.0821)"><g
       style="fill:#f79910;fill-opacity:1"
       id="g43"
       transform="matrix(0.13904052,0,0,0.13904052,411.22238,80.490182)"><path
         id="path3"
         style="fill:#f79910;fill-opacity:1"
         d="m 127.43485,47.411199 c -41.85586,0 -75.787112,33.931246 -75.787112,75.783201 v 0.16407 c -0.002,0.109 -0.003,0.21717 0,0.32617 0.0049,0.163 0.0075,0.32723 0.0059,0.49023 l 0.0039,0.35938 0.0039,0.1289 c 0,0.06 0.0019,0.11969 0.0039,0.17969 0.003,0.095 0.0039,0.19016 0.0039,0.28516 l 0.01172,0.38867 0.01563,0.45703 0.0059,0.15039 0.01953,0.47266 v 0.0234 c 0.008,0.185 0.01834,0.36874 0.02734,0.55274 v 0.0137 c 0.01,0.188 0.0212,0.37741 0.0332,0.56641 0.01,0.174 0.0202,0.34748 0.0332,0.52148 l 0.002,0.0312 c 0.0087,0.149 0.0181,0.30022 0.0293,0.44922 l 0.0039,0.0391 0.03125,0.43164 0.0039,0.0293 c 0.006,0.084 0.01153,0.16705 0.01953,0.24805 0.0598,0.721 0.129385,1.44115 0.208985,2.16015 l 0.0059,0.0449 0.06055,0.52929 0.06836,0.55469 0.04883,0.37891 0.02344,0.17578 c 0.0533,0.408 0.111828,0.8147 0.173828,1.2207 l 0.0039,0.0273 0.05859,0.38477 c 0.2855,1.829 0.639647,3.64622 1.060547,5.44922 l 0.0039,0.0215 0.0332,0.13477 0.08984,0.38672 0.05664,-0.0684 c 2.199997,-2.63 5.355722,-4.08008 8.886718,-4.08008 2.829998,0 5.732582,0.93625 8.642579,2.78125 1.929998,1.226 4.065721,3.39791 6.261718,6.12891 2.031998,-2.822 4.878723,-4.69894 8.136719,-5.21094 0.6212,-0.098 1.250007,-0.14744 1.878907,-0.14844 7.435992,0 11.91347,6.45477 13.605461,12.25977 0.836,1.96099 4.86542,10.8916 10.94141,16.93359 9.23599,9.22699 11.54756,18.74837 6.97656,28.94336 h 0.0156 c 0.311,0.035 0.62445,0.0667 0.93945,0.0957 0.187,0.018 0.37255,0.0367 0.56055,0.0527 l 0.0664,0.006 0.41211,0.0351 0.38086,0.0293 c 0.362,0.028 0.72585,0.0551 1.08985,0.0781 l 0.28711,0.0156 0.23047,0.0156 0.14062,0.008 0.44727,0.0215 0.12304,0.006 0.46875,0.0215 0.52149,0.0195 0.41992,0.0117 0.0703,0.002 c 0.089,0.004 0.17663,0.008 0.26563,0.008 l 0.0957,0.002 c 0.59,0.014 1.17953,0.0205 1.76953,0.0195 h 0.62695 l 0.44532,-0.004 c 0.11,-0.005 0.21907,-0.006 0.33007,-0.006 h 0.17579 l 0.15039,-0.004 c 0.059,-0.002 0.11773,-0.004 0.17773,-0.004 h 0.17969 l 0.34961,-0.008 0.52929,-0.0195 0.58008,-0.0254 c 0.168,-0.006 0.334,-0.0154 0.5,-0.0234 l 0.17969,-0.01 0.26563,-0.0137 0.15625,-0.01 0.11718,-0.008 0.53711,-0.0352 0.53711,-0.0391 0.48633,-0.0391 0.3418,-0.0293 0.37695,-0.0332 c 0.628,-0.056 1.25291,-0.12227 1.87891,-0.19727 l 0.42773,-0.0508 c -4.499,-10.15199 -2.16965,-19.63227 7.02734,-28.82226 6.063,-6.058 10.09165,-14.99113 10.93164,-16.95313 1.693,-5.80399 6.16943,-12.25586 13.60743,-12.25586 0.629,0 1.2579,0.0504 1.8789,0.14844 3.255,0.512 6.10172,2.38699 8.13672,5.20898 2.197,-2.72999 4.33072,-4.9029 6.26172,-6.1289 2.909,-1.844 5.81558,-2.7793 8.64258,-2.7793 3.116,0 5.93927,1.13013 8.07226,3.20313 0.039,-0.169 0.0763,-0.33782 0.11329,-0.50782 l 0.10937,-0.50586 c 0.039,-0.185 0.0782,-0.37164 0.11524,-0.55664 0.066,-0.327 0.13231,-0.65242 0.19531,-0.98242 0.066,-0.342 0.12945,-0.68725 0.18945,-1.03125 l 0.0312,-0.18555 c 0.019,-0.11 0.0356,-0.21907 0.0566,-0.33007 0.034,-0.172 0.0618,-0.34554 0.0898,-0.51954 l 0.0117,-0.0664 0.0703,-0.45117 0.0703,-0.45899 v -0.004 c 0.051,-0.339 0.0995,-0.67858 0.14453,-1.01758 l 0.01,-0.084 0.0644,-0.47851 0.0508,-0.40821 0.0898,-0.80273 0.0352,-0.32422 0.008,-0.0879 c 0.019,-0.174 0.0387,-0.34748 0.0547,-0.52148 v -0.0137 c 0.013,-0.138 0.0271,-0.27701 0.0391,-0.41601 0.071,-0.788 0.12974,-1.58 0.17774,-2.375 0.009,-0.13 0.0174,-0.26158 0.0254,-0.39258 v -0.006 l 0.0254,-0.49219 0.006,-0.10937 c 0.016,-0.332 0.03,-0.6641 0.041,-0.99609 v -0.0117 l 0.004,-0.12891 c 0.005,-0.109 0.01,-0.22008 0.01,-0.33008 l 0.002,-0.043 c 0.004,-0.103 0.008,-0.20945 0.008,-0.31445 l 0.004,-0.0898 c 0.003,-0.105 0.006,-0.20946 0.006,-0.31446 l 0.002,-0.0898 c 0.003,-0.133 0.006,-0.26544 0.006,-0.39844 v -0.49023 -0.49024 c 0,-41.853955 -33.91843,-75.783201 -75.77539,-75.783201 z m -28.166018,39.82422 c 0.999878,0.01718 2.000208,0.170319 2.972658,0.464843 2.065,0.6218 3.89948,1.842061 5.27148,3.50586 1.372,1.663898 2.21855,3.698252 2.43555,5.84375 0.216,2.145498 -0.2087,4.306938 -1.2207,6.210938 -0.749,1.407 -2.40816,0.74297 -4.16016,0.043 -1.374,-0.55 -2.80449,-1.12233 -3.89648,-0.73633 -1.182003,0.418 -2.06049,1.69039 -2.896489,2.90039 -1.129999,1.637 -2.181923,3.15878 -3.794922,2.30078 -2.394497,-1.268 -4.231944,-3.38169 -5.152343,-5.92969 -0.9203,-2.548493 -0.857771,-5.349967 0.173828,-7.855464 1.031599,-2.505498 2.958352,-4.535667 5.40625,-5.697266 1.529998,-0.725999 3.194865,-1.07941 4.861328,-1.050781 z m 54.775388,0.0078 c 0.40105,0.01551 0.80243,0.05331 1.20117,0.113281 1.594,0.2399 3.11608,0.83167 4.45508,1.730469 1.338,0.898799 2.46111,2.083652 3.28711,3.46875 0.826,1.384999 1.33428,2.935817 1.48828,4.541016 0.206,2.146698 -0.229,4.305085 -1.25,6.205075 -1.02,1.9 -2.58233,3.4538 -4.48632,4.4668 -1.614,0.858 -2.66493,-0.66478 -3.79493,-2.30078 -0.836,-1.211 -1.71644,-2.48239 -2.89843,-2.90039 -1.091,-0.386 -2.52154,0.18538 -3.89454,0.73437 -1.75199,0.701 -3.41215,1.36599 -4.16015,-0.041 -0.757,-1.424 -1.18767,-2.99838 -1.26367,-4.609378 -0.075,-1.610498 0.20812,-3.216879 0.82812,-4.705078 0.62,-1.488198 1.56277,-2.820192 2.75977,-3.900391 1.197,-1.080198 2.61811,-1.882756 4.16211,-2.347656 1.158,-0.348824 2.36326,-0.501606 3.5664,-0.455078 z m -1.21289,35.414061 c 1.54438,-0.10375 2.40235,0.77032 2.40235,3.32032 0,6.45199 -2.99178,16.92485 -11.13477,23.33984 -2.324,-4.325 -6.23516,-7.57908 -10.91016,-9.08008 -0.92899,-0.297 -1.89,1.18789 -2.875,2.71289 -0.94299,1.458 -1.90762,2.95117 -2.89062,2.95117 -0.922,0 -1.8298,-1.51604 -2.7168,-2.99804 -0.919,-1.537 -1.8155,-3.03735 -2.6875,-2.77735 -2.498,0.748 -4.81759,2.00351 -6.80859,3.6875 -1.992,1.684 -3.61458,3.75866 -4.76758,6.09766 -8.73399,-6.34899 -11.916016,-17.2776 -11.916016,-23.93359 0,-5.195 3.557526,-3.43205 9.228516,-0.62305 5.041,2.498 11.7521,5.82227 19.12109,5.82227 7.368,0 14.08106,-3.32527 19.12305,-5.82227 l 0.31055,-0.15234 c 2.7465,-1.36 4.97711,-2.44118 6.52148,-2.54493 z m -90.681639,22.92774 c -1.998699,0.29866 -3.019609,2.37063 -2.333984,6.17187 0.544999,3.019 5.612661,8.17234 10.347656,12.98633 4.803995,4.884 9.264546,9.42039 8.310547,11.02539 -1.892998,3.187 -8.560547,-3.74609 -8.560547,-3.74609 0,0 -20.875927,-18.99787 -25.419922,-14.04688 -4.189996,4.563 2.272425,8.44288 12.228516,14.42188 0.845999,0.508 1.716375,1.03226 2.609375,1.57226 11.390988,6.896 12.277154,8.71327 10.660156,11.32227 -0.597,0.964 -4.409614,-1.32367 -9.09961,-4.13867 -7.994992,-4.801 -18.536392,-11.12984 -20.02539,-5.46485 -1.287999,4.903 6.46796,7.90587 13.501953,10.63086 5.859994,2.27 11.218687,4.34607 10.429687,7.16407 -0.816999,2.92199 -5.244942,0.48626 -10.085937,-2.17774 -5.434995,-2.99099 -11.390846,-6.26731 -13.339844,-2.57031 -3.682996,6.98999 25.410391,15.2183 25.650391,15.2793 9.39999,2.43799 33.272242,7.60494 41.615232,-4.62305 6.002,-8.80099 5.57579,-15.40673 -2.6582,-23.63672 -8.235892,-8.23099 -13.029298,-20.26758 -13.029298,-20.26758 0,0 -1.789144,-6.99161 -5.86914,-6.34961 -4.079996,0.642 -7.072289,11.08938 1.470703,17.48438 8.541991,6.39499 -1.700285,10.73146 -4.988281,4.73047 -3.287997,-6.002 -12.263974,-21.42987 -16.917969,-24.38086 -1.745249,-1.10663 -3.296875,-1.56592 -4.496094,-1.38672 z m 131.636719,0 c -1.19952,-0.1792 -2.75084,0.28009 -4.49609,1.38672 -4.654,2.95099 -13.62507,18.37886 -16.91407,24.38086 -3.28799,6.00099 -13.52932,1.66452 -4.98632,-4.73047 8.54199,-6.395 5.54874,-16.84238 1.46875,-17.48438 -4.08,-0.642 -5.86914,6.34961 -5.86914,6.34961 0,0 -4.79236,12.03659 -13.02735,20.26758 -8.23499,8.22999 -8.66215,14.83573 -2.66015,23.63672 8.33999,12.22799 32.21329,7.06123 41.61328,4.61523 0.235,-0.06 29.33243,-8.28139 25.64843,-15.27539 -1.94799,-3.69999 -7.90289,-0.42068 -13.33789,2.57032 -4.83999,2.66399 -9.26798,5.10068 -10.08398,2.17968 -0.788,-2.81799 4.57165,-4.89406 10.43164,-7.16406 7.03399,-2.725 14.79095,-5.72982 13.50195,-10.63281 -1.48899,-5.666 -12.03135,0.66485 -20.02734,5.46484 -4.689,2.815 -8.50161,5.10367 -9.09961,4.13867 -1.616,-2.60799 -0.73083,-4.42627 10.66016,-11.32226 0.869,-0.525 1.73837,-1.04927 2.60937,-1.57227 9.95699,-5.97899 16.41947,-9.85792 12.23047,-14.41992 -4.54599,-4.95099 -25.42187,14.04492 -25.42187,14.04492 0,0 -6.67146,6.937 -8.56446,3.75 -0.953,-1.605 3.50851,-6.14139 8.3125,-11.02539 4.735,-4.81499 9.80366,-9.96733 10.34766,-12.98633 0.68625,-3.80124 -0.33674,-5.87321 -2.33594,-6.17187 z" /></g></g><style
     type="text/css"
     id="style3">
	.st0{fill:#F79910;}
</style></svg>
