<svg data-name="Layer 1" xmlns="http://www.w3.org/2000/svg" width="717.67" height="453.964" viewBox="0 0 717.67 453.964" class="featureSvg_GfXr" role="img"><path d="M271.986 71.477a3.827 3.827 0 0 1-4.314 1.257 5.829 5.829 0 0 1-.678-.248 28.826 28.826 0 0 0-.368-7.989 21.362 21.362 0 0 1-1.64 6.57 8.91 8.91 0 0 1-1.76-2.513 22.425 22.425 0 0 1-1.602-6.046c-1.205-7.088-2.393-14.462-.428-21.389 2.88-10.119 11.957-17.393 15.75-27.211l1.867-1.677c3.198 5.445 3.34 12.212 2.036 18.387-1.297 6.187-3.91 11.993-5.975 17.96s-3.613 12.313-2.655 18.556c.22 1.47.556 3.086-.233 4.343Z" fill="#2f2e41"></path><path fill="#ffb6b6" d="m230.469 157.098-12.174 55.681 53.174 17.319-7.819-73h-33.181z"></path><path d="M605.699 452.598h24.096v-110.47a107.653 107.653 0 0 0-107.531-107.53H298.326a107.653 107.653 0 0 0-107.531 107.53v110.47h24.095v-75.47a108.654 108.654 0 0 1 108.531-108.53h173.747A108.654 108.654 0 0 1 605.7 377.128Z" fill="#e6e6e6"></path><path d="m312.894 394.806-25.68-7.775a88.484 88.484 0 0 1-2.51-20.963 8.4 8.4 0 0 1 13.816-6.355c13.773 11.814 33.948 18.118 46.968 31.58a52.073 52.073 0 0 1 13.888 42.946l5.62 18.181a87.259 87.259 0 0 1-63.976-35.285 84.287 84.287 0 0 1-10.122-18.565c10.892-1.235 21.996-3.764 21.996-3.764Z" fill="#f2f2f2"></path><path d="m379.823 424.58 13.098-3.966.05-.209a8.409 8.409 0 0 0-12.482-9.094c-5.946 3.532-12.548 6.574-17.29 11.477a26.56 26.56 0 0 0-7.083 21.904l-2.867 9.272a44.505 44.505 0 0 0 32.63-17.996 42.989 42.989 0 0 0 5.163-9.469c-5.555-.63-11.219-1.92-11.219-1.92Z" fill="#f2f2f2"></path><path d="M485.849 153.13h-51.006a2.721 2.721 0 0 0-2.717 2.724v80.574h56.447v-80.574a2.723 2.723 0 0 0-2.724-2.724Zm-25.332 45.781a6.051 6.051 0 0 1-6.023-6.023v-9.293a6.023 6.023 0 0 1 12.046 0v9.293a6.051 6.051 0 0 1-6.023 6.023Z" fill="#3f3d56"></path><path d="M570.31 27.385H352.28a7.078 7.078 0 0 0-7.066 7.067v147.127a7.073 7.073 0 0 0 7.066 7.066h218.03a7.073 7.073 0 0 0 7.066-7.066V34.452a7.078 7.078 0 0 0-7.067-7.067Z" fill="#3f3d56"></path><path d="M568.49 32.49H354.101a3.787 3.787 0 0 0-3.78 3.786v143.48a3.786 3.786 0 0 0 3.78 3.78h214.387a3.786 3.786 0 0 0 3.78-3.78V36.277a3.787 3.787 0 0 0-3.78-3.787Z" fill="#fff"></path><path d="M431.95 233.85v7.775a1.523 1.523 0 0 0 1.52 1.52h53.758a1.527 1.527 0 0 0 1.52-1.52v-7.774Z" fill="#3f3d56"></path><path d="M526.73 245.85H399.181a2.346 2.346 0 0 1-2.296-2.83l1.98-9.4a2.356 2.356 0 0 1 2.295-1.863h123.592a2.356 2.356 0 0 1 2.295 1.863l1.98 9.4a2.346 2.346 0 0 1-2.297 2.83Z" fill="#3f3d56"></path><rect x="402.066" y="233.45" width="3.928" height="2.357" rx="0.488" fill="#e6e6e6"></rect><rect x="409.923" y="233.45" width="3.928" height="2.357" rx="0.488" fill="#e6e6e6"></rect><rect x="417.779" y="233.45" width="3.928" height="2.357" rx="0.488" fill="#e6e6e6"></rect><rect x="425.636" y="233.45" width="3.928" height="2.357" rx="0.488" fill="#e6e6e6"></rect><rect x="433.493" y="233.45" width="3.928" height="2.357" rx="0.488" fill="#e6e6e6"></rect><rect x="441.35" y="233.45" width="3.928" height="2.357" rx="0.488" fill="#e6e6e6"></rect><rect x="449.207" y="233.45" width="3.928" height="2.357" rx="0.488" fill="#e6e6e6"></rect><rect x="457.063" y="233.45" width="3.928" height="2.357" rx="0.488" fill="#e6e6e6"></rect><rect x="464.92" y="233.45" width="3.928" height="2.357" rx="0.488" fill="#e6e6e6"></rect><rect x="472.777" y="233.45" width="3.928" height="2.357" rx="0.488" fill="#e6e6e6"></rect><rect x="480.634" y="233.45" width="3.928" height="2.357" rx="0.488" fill="#e6e6e6"></rect><rect x="488.49" y="233.45" width="3.928" height="2.357" rx="0.488" fill="#e6e6e6"></rect><rect x="496.347" y="233.45" width="3.928" height="2.357" rx="0.488" fill="#e6e6e6"></rect><rect x="504.204" y="233.45" width="3.928" height="2.357" rx="0.488" fill="#e6e6e6"></rect><rect x="512.061" y="233.45" width="3.928" height="2.357" rx="0.488" fill="#e6e6e6"></rect><rect x="519.917" y="233.45" width="3.928" height="2.357" rx="0.488" fill="#e6e6e6"></rect><rect x="401.973" y="237.378" width="3.928" height="2.357" rx="0.488" fill="#e6e6e6"></rect><rect x="409.83" y="237.378" width="3.928" height="2.357" rx="0.488" fill="#e6e6e6"></rect><rect x="417.687" y="237.378" width="3.928" height="2.357" rx="0.488" fill="#e6e6e6"></rect><rect x="425.543" y="237.378" width="3.928" height="2.357" rx="0.488" fill="#e6e6e6"></rect><rect x="433.4" y="237.378" width="3.928" height="2.357" rx="0.488" fill="#e6e6e6"></rect><rect x="441.257" y="237.378" width="3.928" height="2.357" rx="0.488" fill="#e6e6e6"></rect><rect x="449.114" y="237.378" width="3.928" height="2.357" rx="0.488" fill="#e6e6e6"></rect><rect x="456.97" y="237.378" width="3.928" height="2.357" rx="0.488" fill="#e6e6e6"></rect><rect x="464.827" y="237.378" width="3.928" height="2.357" rx="0.488" fill="#e6e6e6"></rect><rect x="472.684" y="237.378" width="3.928" height="2.357" rx="0.488" fill="#e6e6e6"></rect><rect x="480.541" y="237.378" width="3.928" height="2.357" rx="0.488" fill="#e6e6e6"></rect><rect x="488.398" y="237.378" width="3.928" height="2.357" rx="0.488" fill="#e6e6e6"></rect><rect x="496.254" y="237.378" width="3.928" height="2.357" rx="0.488" fill="#e6e6e6"></rect><rect x="504.111" y="237.378" width="3.928" height="2.357" rx="0.488" fill="#e6e6e6"></rect><rect x="511.968" y="237.378" width="3.928" height="2.357" rx="0.488" fill="#e6e6e6"></rect><rect x="519.825" y="237.378" width="3.928" height="2.357" rx="0.488" fill="#e6e6e6"></rect><rect x="439.686" y="242.092" width="31.427" height="2.357" rx="0.488" fill="#e6e6e6"></rect><path d="M536.523 68.508v75.52a19.073 19.073 0 0 1-19.07 19.07h-94.52a19.08 19.08 0 0 1-17.51-11.49 17.984 17.984 0 0 1-1.13-3.51 17.367 17.367 0 0 0 6.3 1.17h94.52a17.605 17.605 0 0 0 17.58-17.58v-75.52a17.368 17.368 0 0 0-1.17-6.3 17.988 17.988 0 0 1 3.51 1.13 19.08 19.08 0 0 1 11.49 17.51Z" fill="#f2f2f2"></path><path fill="#ffb6b6" d="m183.897 368.973-9.375 5.805-27.619-33.95 13.836-8.566 23.158 36.711z"></path><path d="m191.99 381.099-7.54 3.367-4.525-6.52-.27 8.66-20 8.928a4.924 4.924 0 0 1-6.214-7.055l11.048-18.162-3.214-7.198 17.248-6.497ZM157.635 362.442l15.834-15.344c-11.764-29.03-12.704-47.022-29.012-82.131 38.693 7.914 66.356 7.433 98.356.337 10.833-2.364 38.785-23.956 36.487-35.027q-.161-.776-.38-1.538c-3.435-11.711-1.017-29.645-8.451-42.641-13.755-5.186-34.653 12.325-51 23-7.883 5.147-2.113 12.16-8 14l-22.57 7.326-55.372-8.943a20.511 20.511 0 0 0-23.376 17.36q-.14.9-.204 1.812c2.548 14.104 5.204 27.837 8.063 40.874.923 4.208-.635 12.275 2.836 12.395s2.073 8.464 3.154 12.543c6.654 25.114 10.863 37.268 33.635 55.977Z" fill="#2f2e41"></path><path fill="#ffb6b6" d="m127.329 429.745-9.767-5.098 15.453-40.936 14.415 7.524-20.101 38.51z"></path><path d="m125.701 399.184 15.661 10.783c19.195-27.76 31.658-64.854 40.94-106.36 36.138-15.765 67.76-33.801 89.796-57.994a20.915 20.915 0 0 0-1.21-29.095q-.578-.542-1.195-1.038c-9.545-7.603-30.743-3.229-44.292-9.583l-24.204 33.5 2.782 7.802-8.42 4.099-7.11 3.46-8.137 3.963-26.679 12.987a20.484 20.484 0 0 0-9.089 27.63q.405.817.878 1.599l-9.908 49.36s2.726 8.593-1.563 7.79-1.953 9.724-1.953 9.724ZM121.414 452.305l-7.321-3.82 2.3-7.595-6.954 5.165-19.418-10.134a4.924 4.924 0 0 1 1.672-9.252l21.096-2.616 3.648-6.988 15.802 9.486Z" fill="#2f2e41"></path><path d="m334.892 237.703-11.423-27.605-9 5 5.435 28.082a10.001 10.001 0 1 0 14.988-5.477ZM143.208 19.407l17.38 24.3 7.634-6.91-11.657-26.12a10.001 10.001 0 1 0-13.357 8.73Z" fill="#ffb6b6"></path><path d="M221.697 173.42c-11.274 17.487 30.028 55.587 51.772 46.678 3.807-1.56 16.904-6.713 7.952-13.857s1.038.851 1.274-3.799c.158-3.109-2.25-9.93.262-9.637s3.953-6.971-1.517-8.821a10.618 10.618 0 0 1-7-9c-.523-19.167 5.968-39.178 5.968-39.178l26.498 67.735s-.196 11.719 3.183 8.138 3.134 8.009 3.134 8.009 5.024 3.507 2.135 5.458 3.11 7.952 3.11 7.952l14-1s-.219-10.4-2.61-12.7-1.215-5.92-1.215-5.92-4.929-4.583-2.052-9.982-20.95-101.961-20.95-101.961a25.72 25.72 0 0 0-18.367-19.62l-15.12-4.164-2.685-10.653h-21.292l-3.708 7-34-3s-33.643-30.61-32-33-3.573-7.986-3.573-7.986-4.454-1.458-1.94-2.236-2.238-2.578-2.238-2.578-4.4-1.156-2.324-2.678-6.925-2.522-6.925-2.522l-11.678 9.527 2.36 4.002s-1.439 5.45.44 3.46 2.231 3.784 2.231 3.784.96 6.322 6.646 8.227 10 20 10 20l48 40c-7.31 8.39-5.57 17.166.906 26.141Z" fill="#f79910"></path><circle cx="258.343" cy="36.964" r="23.056" fill="#ffb6b6"></circle><path d="M278.469 30.098c-.59.17-9.25 1.3-13 2-3.68.69-4.32-4-7.33-3.12a.127.127 0 0 0-.01-.06 28.344 28.344 0 0 0-2.37-7.17 21.178 21.178 0 0 1 .17 6.6.984.984 0 0 1-.02.17c-.01.1-.03.19-.04.29-3.18-1.4-5.2-.15-7.4.29-2.46.49-4.38 1.57-3 10 2.83 17.34 17.55 23.53 15 35-.5 2.27-1.76 5.11-3.34 5.82a28.344 28.344 0 0 0-2.37-7.17 21.178 21.178 0 0 1 .17 6.6c-2.45-2.65-4.22-11.91-12.46-19.25-2.03-1.8-12.2-12.48-13.42-15a32.136 32.136 0 0 1 .54 6.11 29.416 29.416 0 0 1-.28 4.1 1.151 1.151 0 0 1-.03.26c-.01.16-.04.3-.06.45-.02.17-.05.33-.08.5-3.33-.48-6.28-1.06-7.67-2.42-6.76-6.58 1.49-19.4 6-31 6.45-16.61 25.18-18.82 27-19 8.02-.81 21.57.91 26 10 3.1 6.37 1.12 15.1-2 16Z" fill="#2f2e41"></path><path d="m229.854 33.847 16.7-25.98a25.612 25.612 0 0 0-13.187-3.46 16.42 16.42 0 0 0-12.11 5.711c-3.41 4.24-3.996 10.232-2.718 15.521.442 1.827 8.846-4.6 6.846-1.6-1.642 2.349-4.326 12.221-5 15-1.083 4.472-4.063 9.062-1.409 12.82 3.139 4.445 8.74 6.654 14.177 6.878s10.787-1.282 15.954-2.988Z" fill="#2f2e41"></path><path d="M236.27 32.822a1 1 0 0 1-.272-1.962c.262-.432.155-2.253.068-3.724-.325-5.524-.87-14.77 8.106-21.01a1 1 0 0 1 1.142 1.642c-8.055 5.6-7.571 13.815-7.251 19.25.182 3.108.315 5.352-1.57 5.78a.994.994 0 0 1-.222.024Z" fill="#f79910"></path><path d="M0 451.95a1.186 1.186 0 0 0 1.183 1.19H716.48a1.19 1.19 0 0 0 0-2.38H1.19A1.186 1.186 0 0 0 0 451.945Z" fill="#ccc"></path><path d="M442.535 94.85h-15.132a1.513 1.513 0 0 1 0-3.027h15.132a1.513 1.513 0 0 1 0 3.026ZM469.772 94.85H454.64a1.513 1.513 0 1 1 0-3.027h15.132a1.513 1.513 0 1 1 0 3.026ZM483.391 106.955H468.26a1.513 1.513 0 1 1 0-3.026h15.132a1.513 1.513 0 1 1 0 3.026ZM456.237 106.955h-28.834a1.513 1.513 0 0 1 0-3.026h28.834a1.513 1.513 0 0 1 0 3.026ZM510.713 94.85h-28.835a1.513 1.513 0 0 1 0-3.027h28.835a1.513 1.513 0 1 1 0 3.026ZM452.895 71.925H424.06a1.513 1.513 0 1 1 0-3.026h28.835a1.513 1.513 0 1 1 0 3.026ZM455.265 80.766a1.355 1.355 0 0 1-.832-2.425l7.383-5.739a2.714 2.714 0 0 0 .328-3.984l-6.198-6.71a1.355 1.355 0 1 1 1.99-1.84l9.205 9.965a1.355 1.355 0 0 1-.163 1.99l-10.882 8.458a1.351 1.351 0 0 1-.83.285Z" fill="#f79910"></path><path d="M422.601 80.766a1.355 1.355 0 0 0 .832-2.425l-7.383-5.739a2.714 2.714 0 0 1-.328-3.984l6.199-6.71a1.355 1.355 0 0 0-1.99-1.84l-9.206 9.965a1.355 1.355 0 0 0 .164 1.99l10.88 8.458a1.351 1.351 0 0 0 .832.285ZM467.8 132.906h-28.834a1.513 1.513 0 0 1 0-3.027h28.835a1.513 1.513 0 0 1 0 3.027ZM472.882 140.391a1.355 1.355 0 0 1-.833-2.425l7.384-5.739a2.714 2.714 0 0 0 .328-3.984l-6.199-6.71a1.355 1.355 0 0 1 1.99-1.84l9.206 9.965a1.355 1.355 0 0 1-.164 1.99l-10.881 8.458a1.351 1.351 0 0 1-.831.285ZM422.601 140.391a1.355 1.355 0 0 0 .832-2.425l-7.383-5.739a2.714 2.714 0 0 1-.328-3.984l6.199-6.71a1.355 1.355 0 1 0-1.99-1.84l-9.206 9.965a1.355 1.355 0 0 0 .164 1.99l10.88 8.458a1.351 1.351 0 0 0 .832.285ZM425.174 136.151l6.061-13.865a1.513 1.513 0 0 1 2.773 1.212l-6.06 13.866a1.513 1.513 0 1 1-2.774-1.213Z" fill="#f79910"></path></svg>