<svg width="207.31403" height="206.41844" viewBox="0 0 54.851835 54.614881" version="1.1" id="svg1" inkscape:version="1.3.2 (091e20ef0f, 2023-11-25)" sodipodi:docname="illustration3_dark.svg" xml:space="preserve" xmlns:inkscape="http://www.inkscape.org/namespaces/inkscape" xmlns:sodipodi="http://sodipodi.sourceforge.net/DTD/sodipodi-0.dtd" xmlns="http://www.w3.org/2000/svg" xmlns:svg="http://www.w3.org/2000/svg"><sodipodi:namedview id="namedview1" pagecolor="#505050" bordercolor="#eeeeee" borderopacity="1" inkscape:showpageshadow="0" inkscape:pageopacity="0" inkscape:pagecheckerboard="0" inkscape:deskcolor="#505050" inkscape:document-units="px" inkscape:zoom="0.58541666" inkscape:cx="-240" inkscape:cy="48.683275" inkscape:window-width="1920" inkscape:window-height="1011" inkscape:window-x="0" inkscape:window-y="0" inkscape:window-maximized="1" inkscape:current-layer="layer1" /><defs id="defs1"><rect x="203.51459" y="1150.095" width="367.98785" height="99.33934" id="rect47" /><rect x="203.51459" y="1150.095" width="433.75299" height="97.631157" id="rect48" /><rect x="203.51459" y="1150.095" width="382.71518" height="121.78854" id="rect49" /><rect x="203.51459" y="1150.095" width="433.75299" height="97.631157" id="rect50" /><rect x="203.51459" y="1150.095" width="433.75299" height="97.631157" id="rect51" /><rect x="203.51459" y="1150.095" width="385.43823" height="103.11166" id="rect52" /><rect x="203.51459" y="1150.095" width="433.75299" height="97.631157" id="rect58" /><rect x="203.51459" y="1150.095" width="553.33203" height="91.591812" id="rect59" /><rect x="203.51459" y="1150.095" width="433.75299" height="97.631157" id="rect60" /></defs><g inkscape:label="Layer 1" inkscape:groupmode="layer" id="layer1" transform="translate(-350.39655,-198.73438)"><g id="g46" transform="matrix(0.07794665,0,0,0.07794665,350.39655,198.73438)"><path d="m 367.05,237.82 c -7.55,3.86 -16.37,3.62 -24.62,4.11 -8.25,0.49 -16.18,1.52 -22.16,7.12 -6.18,5.79 -7.44,14.49 -5.89,22.48 1.73,8.98 6.67,16.49 12.52,23.34 6.29,7.37 13.47,14.19 18.06,22.83 4.06,7.64 5.38,16.36 4.23,24.91 -2.37,17.71 -13.93,33.33 -28.59,43.03 -16.88,11.18 -36.95,16.01 -56.54,19.99 -2.49,0.51 -4.98,1 -7.47,1.49 -1.58,0.31 -0.91,2.72 0.66,2.41 19.74,-3.88 39.95,-7.94 57.8,-17.65 8.21,-4.46 15.76,-10.11 21.83,-17.25 5.68,-6.68 10.16,-14.43 12.78,-22.82 2.62,-8.39 3.22,-16.82 1.31,-25.11 -2.1,-9.13 -7.51,-16.74 -13.56,-23.7 -6.05,-6.96 -13.19,-13.78 -17.34,-22.33 -3.55,-7.3 -5.61,-16.71 -2.02,-24.39 3.6,-7.7 11.58,-10.59 19.51,-11.46 8.33,-0.91 16.92,-0.32 25.06,-2.62 1.96,-0.55 3.87,-1.3 5.68,-2.23 1.43,-0.73 0.17,-2.89 -1.26,-2.16 z" fill="#f79910" id="path1-56" /><path d="m 0,699.48 c 0,0.66 0.53,1.19 1.19,1.19 h 258.84 c 0.66,0 1.19,-0.53 1.19,-1.19 0,-0.66 -0.53,-1.19 -1.19,-1.19 H 1.19 c -0.66,0 -1.19,0.53 -1.19,1.19 z m 442.49,0 c 0,0.66 0.53,1.19 1.19,1.19 h 258.84 c 0.66,0 1.19,-0.53 1.19,-1.19 0,-0.66 -0.53,-1.19 -1.19,-1.19 H 443.68 c -0.66,0 -1.19,0.53 -1.19,1.19 z" fill="#3f3d58" id="path2-7" style="fill:#cccccc;fill-opacity:1" /><path fill="#f79910" d="M 365.84,244.42 471.58,81.81 365.84,0 260.09,81.81 Z" id="path3-1" /><path fill="#2f2e43" d="m 365.33,0 h 1 v 244.42 h -1 z" id="path4-2" /><path d="m 260.3,82.26 -0.42,-0.91 c 0.27,-0.12 27.21,-12.57 66.6,-18.75 36.36,-5.7 91.1,-7.07 145.32,18.75 l -0.43,0.9 C 417.39,56.54 362.88,57.91 326.66,63.58 287.4,69.73 260.56,82.12 260.3,82.25 Z" fill="#2f2e43" id="path5-0" /><path fill="#faafb2" d="m 198.72,447.94 17.15,-0.47 -7.94,-22.08 -13.92,5 z" id="path6-29" /><circle cx="202.74001" cy="416.89999" r="16.25" fill="#faafb2" id="circle6" /><path fill="#faafb2" d="m 199.88,688.54 h -12.73 v -18.06 h 12.73 z" id="path7-3" /><path d="m 198.46,698.89 c -2.18,0.2 -13.07,1.06 -13.61,-1.44 -0.5,-2.29 0.23,-4.69 0.34,-5.01 1.05,-10.42 1.44,-10.53 1.67,-10.6 0.37,-0.11 1.45,0.4 3.21,1.54 l 0.11,0.07 0.02,0.13 c 0.03,0.16 0.81,3.99 4.5,3.4 2.53,-0.4 3.35,-0.96 3.61,-1.23 -0.22,-0.1 -0.48,-0.27 -0.67,-0.56 -0.27,-0.42 -0.32,-0.97 -0.14,-1.63 0.48,-1.73 1.9,-4.29 1.96,-4.4 l 0.16,-0.29 14.47,9.76 8.93,2.55 c 0.67,0.19 1.22,0.67 1.49,1.32 0.38,0.9 0.14,1.95 -0.58,2.6 -1.62,1.46 -4.85,3.95 -8.23,4.27 -0.9,0.08 -2.09,0.12 -3.43,0.12 -5.59,0 -13.74,-0.58 -13.8,-0.59 z" fill="#2f2e43" id="path8-6" style="fill:#ffffff" /><path fill="#faafb2" d="m 145.801,685.719 -12.482,-2.497 3.542,-17.709 12.482,2.497 z" id="path9-1" /><path d="m 142.42,695.59 c -2.17,-0.23 -13.02,-1.53 -13.07,-4.08 -0.04,-2.35 1.15,-4.55 1.32,-4.85 3.07,-10.01 3.47,-10.05 3.72,-10.07 0.39,-0.03 1.35,0.68 2.85,2.14 l 0.09,0.09 v 0.13 c 0,0.17 0.01,4.07 3.74,4.22 2.56,0.1 3.47,-0.28 3.78,-0.5 -0.19,-0.14 -0.42,-0.36 -0.55,-0.68 -0.19,-0.47 -0.13,-1.02 0.18,-1.63 0.81,-1.6 2.7,-3.83 2.78,-3.93 l 0.21,-0.25 12.27,12.41 8.26,4.26 c 0.62,0.32 1.06,0.9 1.2,1.59 0.19,0.96 -0.24,1.94 -1.08,2.44 -1.88,1.11 -5.53,2.93 -8.91,2.57 -0.9,-0.1 -2.07,-0.3 -3.38,-0.56 -5.48,-1.1 -13.36,-3.26 -13.42,-3.28 z m 77.95,-170.65 -60.63,-6.46 -27.9,150.38 19.41,2.42 32.74,-99.04 -1.62,101.87 h 21.02 z" fill="#2f2e43" id="path10-0" style="fill:#ffffff" /><path d="m 217.13,438.47 -33.14,-3.68 -32.74,105.91 c 0,0 16.57,-3.23 26.68,7.28 10.11,10.51 44.91,-1.43 44.91,-1.43 l -5.71,-108.09 z" fill="#dfdfe0" id="path11-4" /><path d="m 248.32,550.05 c 0.9,4.44 -0.75,8.5 -3.69,9.06 -2.94,0.56 -6.05,-2.58 -6.95,-7.03 -0.39,-1.77 -0.32,-3.61 0.18,-5.35 l -3.57,-18.87 9.23,-1.46 2.54,18.76 c 1.15,1.43 1.92,3.11 2.25,4.89 z" fill="#faafb2" id="path12-4" /><path d="m 204.41,437.22 12.72,1.25 c 6.13,1.3 10.9,6.11 12.16,12.25 l 18.5,89.97 H 235.28 L 204.4,437.21 Z" fill="#dfdfe0" id="path13-4" /><path d="m 193.65,427.02 1.6,-0.73 c -0.67,-3.02 -1.28,-6.42 0.42,-9 0.94,-1.42 2.54,-2.54 2.74,-4.23 0.17,-1.4 -0.72,-2.83 -0.33,-4.19 0.41,-1.43 2.01,-2.09 3.42,-2.57 2.21,-0.74 4.46,-1.49 6.78,-1.55 2.33,-0.05 4.79,0.7 6.27,2.49 0.46,0.55 0.81,1.19 1.15,1.81 1.17,2.12 3.19,6.22 3.19,6.22 0,0 -0.08,-0.94 -0.07,-2.81 0.59,-1.64 1.43,-3.23 1.57,-4.96 0.17,-2.09 -0.7,-4.14 -1.88,-5.87 -2.68,-3.93 -7.19,-6.66 -11.95,-6.87 -4.76,-0.22 -9.12,0.11 -11.53,4.22 -0.45,0.77 -0.82,1.6 -1.39,2.29 -1.05,1.28 -2.64,1.96 -3.93,2.99 -2.87,2.3 -4.89,6.53 -4.69,10.21 0.2,3.68 1.55,7.18 2.89,10.61 1.15,2.96 3.52,5.97 6.52,7.01 -0.32,-1.59 -0.63,-3.18 -0.95,-4.77" fill="#2f2e43" id="path14-7" /><path d="m 204.03,439.15 -0.19,0.26 -5.78,7.9 -6.67,9.13 -1.5,2.05 -5.5,7.53 c 0,0 -1.76,2.09 -4.66,4.71 l -0.06,0.05 c -1.04,0.94 -2.22,1.94 -3.52,2.94 -7.35,5.66 -18.41,11.19 -28.01,3.76 -12.19,-9.44 14.55,-30.48 28.16,-40.08 a 17.306,17.306 0 0 1 15.37,-2.31 z" fill="#dfdfe0" id="path15-5" /><path d="m 203.72,450.25 c -1.23,0.82 -2.62,1.37 -4.08,1.64 -0.33,0.06 -0.66,0.11 -1,0.14 l -6.92,5.11 -1.83,1.35 -6.48,4.79 -5.39,-7.64 9.95,-6.57 6.08,-4.02 c 0.91,-1.57 2.18,-2.9 3.72,-3.85 1.88,-1.21 3.92,-1.81 5.69,-1.81 h 0.01 c 0.13,0 0.25,0 0.37,0.02 1.65,0.07 3.04,0.7 3.81,1.88 1.65,2.5 -0.12,6.51 -3.93,8.96 z" fill="#faafb2" id="path16-6" /><path fill="#dfdfe0" d="m 192.91,459.7 -5.08,-10.96 -22.51,8.4 10.83,16.58 z" id="path17-9" /><path d="m 205.73,473.83 -4.31,-19.51 c -2.11,-9.55 3.3,-18.99 12.59,-21.94 59.96,-19.09 85.59,-51.21 95.53,-68.66 32.19,-56.51 55.6,-118.85 55.83,-119.47 l 0.94,0.35 c -0.23,0.62 -23.66,63.04 -55.9,119.62 -23.33,40.95 -70.22,60.88 -96.1,69.12 -8.79,2.8 -13.91,11.73 -11.91,20.77 l 4.31,19.51 z" fill="#2f2e43" id="path18-8" style="fill:#ffffff" /><path d="m 203.72,450.25 c -1.23,0.82 -2.62,1.37 -4.08,1.64 -0.98,-1.33 -1.55,-2.9 -1.58,-4.58 v -0.12 c 0,-3.36 2.18,-6.28 5.4,-7.8 h 0.01 c 0.18,-0.09 -0.19,0.07 0,0 l 0.37,0.02 c 1.65,0.07 3.04,0.7 3.81,1.88 1.65,2.5 -0.12,6.51 -3.93,8.96 z" fill="#faafb2" id="path19-7" /><path d="m 591.63,400.56 c 0,0 -12.5,-3.03 -20.07,15.27 -6.31,15.25 -10.78,23.4 -5.66,28.94 1.83,1.98 4.44,3.05 7.14,3.14 l 28.82,0.94 c 0,0 10.58,-27.74 4.15,-37.77 -6.43,-10.03 -14.37,-10.52 -14.37,-10.52 z" fill="#2f2e43" id="path20-7" style="fill:#ffffff" /><path fill="#faafb2" d="m 597.6,446.56 -13.86,4.55 v -19.95 h 12.57 z m -10.64,241.77 h -12.98 l -7.53,-69.37 h 20.07 z" id="path21-6" /><path d="m 561.34,699.48 c -1.37,0 -2.58,-0.03 -3.5,-0.12 -3.45,-0.32 -6.74,-2.86 -8.39,-4.35 a 2.351,2.351 0 0 1 0.93,-4 l 9.11,-2.6 14.75,-9.95 0.16,0.3 c 0.06,0.11 1.51,2.72 2,4.48 0.18,0.67 0.14,1.23 -0.14,1.66 -0.19,0.3 -0.46,0.47 -0.68,0.57 0.27,0.28 1.1,0.85 3.68,1.26 3.77,0.6 4.55,-3.3 4.59,-3.47 l 0.02,-0.13 0.11,-0.07 c 1.79,-1.15 2.89,-1.68 3.27,-1.57 0.24,0.07 0.64,0.19 1.7,10.81 0.11,0.33 0.86,2.78 0.35,5.11 -0.56,2.54 -11.66,1.67 -13.88,1.47 -0.06,0 -8.38,0.6 -14.08,0.6 z" fill="#2f2e43" id="path22-8" style="fill:#ffffff" /><path fill="#faafb2" d="m 616.29,688.33 h -12.98 l -7.53,-69.37 h 20.07 z" id="path23-4" /><path d="m 590.67,699.48 c -1.37,0 -2.58,-0.03 -3.5,-0.12 -3.45,-0.32 -6.74,-2.86 -8.39,-4.35 a 2.351,2.351 0 0 1 0.93,-4 l 9.11,-2.6 14.75,-9.95 0.16,0.3 c 0.06,0.11 1.51,2.72 2,4.48 0.18,0.67 0.14,1.23 -0.14,1.66 -0.19,0.3 -0.46,0.47 -0.68,0.57 0.27,0.28 1.1,0.85 3.68,1.26 3.77,0.6 4.55,-3.3 4.59,-3.47 l 0.02,-0.13 0.11,-0.07 c 1.79,-1.15 2.9,-1.68 3.27,-1.57 0.24,0.07 0.64,0.19 1.7,10.81 0.11,0.33 0.86,2.78 0.35,5.11 -0.55,2.54 -11.66,1.67 -13.88,1.47 -0.06,0 -8.38,0.6 -14.08,0.6 z" fill="#2f2e43" id="path24-8" style="fill:#ffffff" /><path fill="#dfdfe0" d="m 620.03,517.95 h -63.08 l 22.67,-74.63 h 25.15 z" id="path25-4" /><path d="m 555.23,559.82 c -0.75,4.57 -3.8,7.85 -6.81,7.32 -3.01,-0.53 -4.84,-4.66 -4.09,-9.23 0.27,-1.83 1,-3.56 2.11,-5.05 l 3.44,-19.32 9.35,1.96 -4.38,18.84 c 0.58,1.78 0.71,3.66 0.38,5.49 z" fill="#faafb2" id="path26-8" /><path d="m 583.59,443.34 c 0,0 -15.67,-0.41 -17.32,3.71 -1.65,4.12 -21.03,102.25 -21.03,102.25 h 12.78 l 25.56,-105.96 z" fill="#dfdfe0" id="path27-5" /><circle cx="586.91998" cy="422.06" r="13.81" fill="#faafb2" id="circle27" /><path d="m 589.09,405.12 c 0,0 -17.73,26.38 -14.75,42.83 l -10.31,-6.46 c 0,0 7.26,-33.31 18.09,-35.9 l 6.98,-0.48 z m 17.83,112.83 h -41.4 l -22.65,92.96 c -0.42,3.93 2.07,7.59 5.89,8.61 12.43,3.33 42.25,8.04 87.38,-5.09 4.34,-1.26 6.81,-5.85 5.44,-10.16 z" fill="#2f2e43" id="path28-3" style="fill:#ffffff" /><path d="m 590.18,443.32 12.88,-0.57 c 5.58,0.42 10.62,3.46 13.61,8.18 9.1,14.38 26.12,44.7 10.92,48.85 -20.03,5.47 -29.74,-24.99 -29.74,-24.99 l -7.67,-31.48 z" fill="#dfdfe0" id="path29-85" /><path d="m 585.76,452.36 c -2.65,-3.8 -2.74,-8.28 -0.21,-10 2.53,-1.72 6.72,-0.03 9.36,3.78 1.08,1.5 1.77,3.25 2,5.09 l 11,16.26 -8.07,5.11 -9.98,-16.57 c -1.66,-0.88 -3.06,-2.14 -4.09,-3.67 z" fill="#faafb2" id="path30-5" /><path fill="#dfdfe0" d="m 592.27,465.51 9.09,-8.37 17.97,16.73 -16.71,11.42 z" id="path31-8" /></g></g><style type="text/css" id="style3"> 	.st0{fill:#F79910;} </style></svg>