<svg width="324.69611" height="205.39041" viewBox="0 0 85.909176 54.342881" version="1.1" id="svg1" inkscape:version="1.3.2 (091e20ef0f, 2023-11-25)" sodipodi:docname="illustration1_dark.svg" xml:space="preserve" xmlns:inkscape="http://www.inkscape.org/namespaces/inkscape" xmlns:sodipodi="http://sodipodi.sourceforge.net/DTD/sodipodi-0.dtd" xmlns="http://www.w3.org/2000/svg" xmlns:svg="http://www.w3.org/2000/svg"><sodipodi:namedview id="namedview1" pagecolor="#505050" bordercolor="#eeeeee" borderopacity="1" inkscape:showpageshadow="0" inkscape:pageopacity="0" inkscape:pagecheckerboard="0" inkscape:deskcolor="#505050" inkscape:document-units="px" inkscape:zoom="0.58541666" inkscape:cx="911.31674" inkscape:cy="62.348755" inkscape:window-width="1920" inkscape:window-height="1011" inkscape:window-x="0" inkscape:window-y="0" inkscape:window-maximized="1" inkscape:current-layer="layer1" /><defs id="defs1"><rect x="203.51459" y="1150.095" width="367.98785" height="99.33934" id="rect47" /><rect x="203.51459" y="1150.095" width="433.75299" height="97.631157" id="rect48" /><rect x="203.51459" y="1150.095" width="382.71518" height="121.78854" id="rect49" /><rect x="203.51459" y="1150.095" width="433.75299" height="97.631157" id="rect50" /><rect x="203.51459" y="1150.095" width="433.75299" height="97.631157" id="rect51" /><rect x="203.51459" y="1150.095" width="385.43823" height="103.11166" id="rect52" /><rect x="203.51459" y="1150.095" width="433.75299" height="97.631157" id="rect58" /><rect x="203.51459" y="1150.095" width="553.33203" height="91.591812" id="rect59" /><rect x="203.51459" y="1150.095" width="433.75299" height="97.631157" id="rect60" /></defs><g inkscape:label="Layer 1" inkscape:groupmode="layer" id="layer1" transform="translate(-53.817219,-202.27874)"><g id="g44" transform="matrix(0.11970568,0,0,0.11970568,53.81722,202.27955)"><path d="m 271.986,71.477 a 3.827,3.827 0 0 1 -4.314,1.257 5.829,5.829 0 0 1 -0.678,-0.248 28.826,28.826 0 0 0 -0.368,-7.989 21.362,21.362 0 0 1 -1.64,6.57 8.91,8.91 0 0 1 -1.76,-2.513 22.425,22.425 0 0 1 -1.602,-6.046 C 260.419,55.42 259.231,48.046 261.196,41.119 264.076,31 273.153,23.726 276.946,13.908 l 1.867,-1.677 c 3.198,5.445 3.34,12.212 2.036,18.387 -1.297,6.187 -3.91,11.993 -5.975,17.96 -2.065,5.967 -3.613,12.313 -2.655,18.556 0.22,1.47 0.556,3.086 -0.233,4.343 z" fill="#2f2e41" id="path1-9" /><path fill="#ffb6b6" d="m 230.469,157.098 -12.174,55.681 53.174,17.319 -7.819,-73 z" id="path2" /><path d="m 605.699,452.598 h 24.096 V 342.128 A 107.653,107.653 0 0 0 522.264,234.598 H 298.326 a 107.653,107.653 0 0 0 -107.531,107.53 v 110.47 h 24.095 v -75.47 A 108.654,108.654 0 0 1 323.421,268.598 H 497.168 A 108.654,108.654 0 0 1 605.7,377.128 Z" fill="#e6e6e6" id="path3-6" /><path d="m 312.894,394.806 -25.68,-7.775 a 88.484,88.484 0 0 1 -2.51,-20.963 8.4,8.4 0 0 1 13.816,-6.355 c 13.773,11.814 33.948,18.118 46.968,31.58 a 52.073,52.073 0 0 1 13.888,42.946 l 5.62,18.181 A 87.259,87.259 0 0 1 301.02,417.135 84.287,84.287 0 0 1 290.898,398.57 c 10.892,-1.235 21.996,-3.764 21.996,-3.764 z" fill="#f2f2f2" id="path4" /><path d="m 379.823,424.58 13.098,-3.966 0.05,-0.209 a 8.409,8.409 0 0 0 -12.482,-9.094 c -5.946,3.532 -12.548,6.574 -17.29,11.477 a 26.56,26.56 0 0 0 -7.083,21.904 l -2.867,9.272 a 44.505,44.505 0 0 0 32.63,-17.996 42.989,42.989 0 0 0 5.163,-9.469 c -5.555,-0.63 -11.219,-1.92 -11.219,-1.92 z" fill="#f2f2f2" id="path5" /><path d="m 485.849,153.13 h -51.006 a 2.721,2.721 0 0 0 -2.717,2.724 v 80.574 h 56.447 v -80.574 a 2.723,2.723 0 0 0 -2.724,-2.724 z m -25.332,45.781 a 6.051,6.051 0 0 1 -6.023,-6.023 v -9.293 a 6.023,6.023 0 0 1 12.046,0 v 9.293 a 6.051,6.051 0 0 1 -6.023,6.023 z" fill="#3f3d56" id="path6" /><path d="M 570.31,27.385 H 352.28 a 7.078,7.078 0 0 0 -7.066,7.067 v 147.127 a 7.073,7.073 0 0 0 7.066,7.066 h 218.03 a 7.073,7.073 0 0 0 7.066,-7.066 V 34.452 a 7.078,7.078 0 0 0 -7.067,-7.067 z" fill="#3f3d56" id="path7" /><path d="M 568.49,32.49 H 354.101 a 3.787,3.787 0 0 0 -3.78,3.786 v 143.48 a 3.786,3.786 0 0 0 3.78,3.78 h 214.387 a 3.786,3.786 0 0 0 3.78,-3.78 V 36.277 a 3.787,3.787 0 0 0 -3.78,-3.787 z" fill="#ffffff" id="path8" /><path d="m 431.95,233.85 v 7.775 a 1.523,1.523 0 0 0 1.52,1.52 h 53.758 a 1.527,1.527 0 0 0 1.52,-1.52 v -7.774 z" fill="#3f3d56" id="path9-2" /><path d="M 526.73,245.85 H 399.181 a 2.346,2.346 0 0 1 -2.296,-2.83 l 1.98,-9.4 a 2.356,2.356 0 0 1 2.295,-1.863 h 123.592 a 2.356,2.356 0 0 1 2.295,1.863 l 1.98,9.4 a 2.346,2.346 0 0 1 -2.297,2.83 z" fill="#3f3d56" id="path10" /><rect x="402.06601" y="233.45" width="3.928" height="2.3570001" rx="0.48800001" fill="#e6e6e6" id="rect10" /><rect x="409.923" y="233.45" width="3.928" height="2.3570001" rx="0.48800001" fill="#e6e6e6" id="rect11" /><rect x="417.77899" y="233.45" width="3.928" height="2.3570001" rx="0.48800001" fill="#e6e6e6" id="rect12" /><rect x="425.63599" y="233.45" width="3.928" height="2.3570001" rx="0.48800001" fill="#e6e6e6" id="rect13" /><rect x="433.49301" y="233.45" width="3.928" height="2.3570001" rx="0.48800001" fill="#e6e6e6" id="rect14" /><rect x="441.35001" y="233.45" width="3.928" height="2.3570001" rx="0.48800001" fill="#e6e6e6" id="rect15" /><rect x="449.207" y="233.45" width="3.928" height="2.3570001" rx="0.48800001" fill="#e6e6e6" id="rect16" /><rect x="457.06299" y="233.45" width="3.928" height="2.3570001" rx="0.48800001" fill="#e6e6e6" id="rect17" /><rect x="464.92001" y="233.45" width="3.928" height="2.3570001" rx="0.48800001" fill="#e6e6e6" id="rect18" /><rect x="472.77701" y="233.45" width="3.928" height="2.3570001" rx="0.48800001" fill="#e6e6e6" id="rect19" /><rect x="480.634" y="233.45" width="3.928" height="2.3570001" rx="0.48800001" fill="#e6e6e6" id="rect20" /><rect x="488.48999" y="233.45" width="3.928" height="2.3570001" rx="0.48800001" fill="#e6e6e6" id="rect21" /><rect x="496.34698" y="233.45" width="3.928" height="2.3570001" rx="0.48800001" fill="#e6e6e6" id="rect22" /><rect x="504.20401" y="233.45" width="3.928" height="2.3570001" rx="0.48800001" fill="#e6e6e6" id="rect23" /><rect x="512.06097" y="233.45" width="3.928" height="2.3570001" rx="0.48800001" fill="#e6e6e6" id="rect24" /><rect x="519.91699" y="233.45" width="3.928" height="2.3570001" rx="0.48800001" fill="#e6e6e6" id="rect25" /><rect x="401.97299" y="237.37801" width="3.928" height="2.3570001" rx="0.48800001" fill="#e6e6e6" id="rect26" /><rect x="409.82999" y="237.37801" width="3.928" height="2.3570001" rx="0.48800001" fill="#e6e6e6" id="rect27" /><rect x="417.68701" y="237.37801" width="3.928" height="2.3570001" rx="0.48800001" fill="#e6e6e6" id="rect28" /><rect x="425.543" y="237.37801" width="3.928" height="2.3570001" rx="0.48800001" fill="#e6e6e6" id="rect29" /><rect x="433.39999" y="237.37801" width="3.928" height="2.3570001" rx="0.48800001" fill="#e6e6e6" id="rect30" /><rect x="441.25699" y="237.37801" width="3.928" height="2.3570001" rx="0.48800001" fill="#e6e6e6" id="rect31" /><rect x="449.11401" y="237.37801" width="3.928" height="2.3570001" rx="0.48800001" fill="#e6e6e6" id="rect32-3" /><rect x="456.97" y="237.37801" width="3.928" height="2.3570001" rx="0.48800001" fill="#e6e6e6" id="rect33" /><rect x="464.827" y="237.37801" width="3.928" height="2.3570001" rx="0.48800001" fill="#e6e6e6" id="rect34" /><rect x="472.68399" y="237.37801" width="3.928" height="2.3570001" rx="0.48800001" fill="#e6e6e6" id="rect35-3" /><rect x="480.54099" y="237.37801" width="3.928" height="2.3570001" rx="0.48800001" fill="#e6e6e6" id="rect36" /><rect x="488.39801" y="237.37801" width="3.928" height="2.3570001" rx="0.48800001" fill="#e6e6e6" id="rect37" /><rect x="496.254" y="237.37801" width="3.928" height="2.3570001" rx="0.48800001" fill="#e6e6e6" id="rect38" /><rect x="504.11099" y="237.37801" width="3.928" height="2.3570001" rx="0.48800001" fill="#e6e6e6" id="rect39" /><rect x="511.96799" y="237.37801" width="3.928" height="2.3570001" rx="0.48800001" fill="#e6e6e6" id="rect40" /><rect x="519.82501" y="237.37801" width="3.928" height="2.3570001" rx="0.48800001" fill="#e6e6e6" id="rect41" /><rect x="439.686" y="242.092" width="31.427" height="2.3570001" rx="0.48800001" fill="#e6e6e6" id="rect42" /><path d="m 536.523,68.508 v 75.52 a 19.073,19.073 0 0 1 -19.07,19.07 h -94.52 a 19.08,19.08 0 0 1 -17.51,-11.49 17.984,17.984 0 0 1 -1.13,-3.51 17.367,17.367 0 0 0 6.3,1.17 h 94.52 a 17.605,17.605 0 0 0 17.58,-17.58 v -75.52 a 17.368,17.368 0 0 0 -1.17,-6.3 17.988,17.988 0 0 1 3.51,1.13 19.08,19.08 0 0 1 11.49,17.51 z" fill="#f2f2f2" id="path42" /><path fill="#ffb6b6" d="m 183.897,368.973 -9.375,5.805 -27.619,-33.95 13.836,-8.566 z" id="path43" /><path d="m 191.99,381.099 -7.54,3.367 -4.525,-6.52 -0.27,8.66 -20,8.928 a 4.924,4.924 0 0 1 -6.214,-7.055 l 11.048,-18.162 -3.214,-7.198 17.248,-6.497 z m -34.355,-18.657 15.834,-15.344 c -11.764,-29.03 -12.704,-47.022 -29.012,-82.131 38.693,7.914 66.356,7.433 98.356,0.337 10.833,-2.364 38.785,-23.956 36.487,-35.027 q -0.161,-0.776 -0.38,-1.538 c -3.435,-11.711 -1.017,-29.645 -8.451,-42.641 -13.755,-5.186 -34.653,12.325 -51,23 -7.883,5.147 -2.113,12.16 -8,14 l -22.57,7.326 -55.372,-8.943 a 20.511,20.511 0 0 0 -23.376,17.36 q -0.14,0.9 -0.204,1.812 c 2.548,14.104 5.204,27.837 8.063,40.874 0.923,4.208 -0.635,12.275 2.836,12.395 3.471,0.12 2.073,8.464 3.154,12.543 6.654,25.114 10.863,37.268 33.635,55.977 z" fill="#2f2e41" id="path44" style="fill:#ffffff" /><path fill="#ffb6b6" d="m 127.329,429.745 -9.767,-5.098 15.453,-40.936 14.415,7.524 z" id="path45" /><path d="m 125.701,399.184 15.661,10.783 c 19.195,-27.76 31.658,-64.854 40.94,-106.36 36.138,-15.765 67.76,-33.801 89.796,-57.994 a 20.915,20.915 0 0 0 -1.21,-29.095 q -0.578,-0.542 -1.195,-1.038 c -9.545,-7.603 -30.743,-3.229 -44.292,-9.583 l -24.204,33.5 2.782,7.802 -8.42,4.099 -7.11,3.46 -8.137,3.963 -26.679,12.987 a 20.484,20.484 0 0 0 -9.089,27.63 q 0.405,0.817 0.878,1.599 l -9.908,49.36 c 0,0 2.726,8.593 -1.563,7.79 -4.289,-0.803 -1.953,9.724 -1.953,9.724 z m -4.287,53.121 -7.321,-3.82 2.3,-7.595 -6.954,5.165 -19.418,-10.134 a 4.924,4.924 0 0 1 1.672,-9.252 l 21.096,-2.616 3.648,-6.988 15.802,9.486 z" fill="#2f2e41" id="path46" style="fill:#ffffff" /><path d="m 334.892,237.703 -11.423,-27.605 -9,5 5.435,28.082 a 10.001,10.001 0 1 0 14.988,-5.477 z M 143.208,19.407 l 17.38,24.3 7.634,-6.91 -11.657,-26.12 a 10.001,10.001 0 1 0 -13.357,8.73 z" fill="#ffb6b6" id="path47" /><path d="m 221.697,173.42 c -11.274,17.487 30.028,55.587 51.772,46.678 3.807,-1.56 16.904,-6.713 7.952,-13.857 -8.952,-7.144 1.038,0.851 1.274,-3.799 0.158,-3.109 -2.25,-9.93 0.262,-9.637 2.512,0.293 3.953,-6.971 -1.517,-8.821 a 10.618,10.618 0 0 1 -7,-9 c -0.523,-19.167 5.968,-39.178 5.968,-39.178 l 26.498,67.735 c 0,0 -0.196,11.719 3.183,8.138 3.379,-3.581 3.134,8.009 3.134,8.009 0,0 5.024,3.507 2.135,5.458 -2.889,1.951 3.11,7.952 3.11,7.952 l 14,-1 c 0,0 -0.219,-10.4 -2.61,-12.7 -2.391,-2.3 -1.215,-5.92 -1.215,-5.92 0,0 -4.929,-4.583 -2.052,-9.982 2.877,-5.399 -20.95,-101.961 -20.95,-101.961 a 25.72,25.72 0 0 0 -18.367,-19.62 l -15.12,-4.164 -2.685,-10.653 h -21.292 l -3.708,7 -34,-3 c 0,0 -33.643,-30.61 -32,-33 1.643,-2.39 -3.573,-7.986 -3.573,-7.986 0,0 -4.454,-1.458 -1.94,-2.236 2.514,-0.778 -2.238,-2.578 -2.238,-2.578 0,0 -4.4,-1.156 -2.324,-2.678 2.076,-1.522 -6.925,-2.522 -6.925,-2.522 l -11.678,9.527 2.36,4.002 c 0,0 -1.439,5.45 0.44,3.46 1.879,-1.99 2.231,3.784 2.231,3.784 0,0 0.96,6.322 6.646,8.227 5.686,1.905 10,20 10,20 l 48,40 c -7.31,8.39 -5.57,17.166 0.906,26.141 z" fill="#f79910" id="path48" /><circle cx="258.34299" cy="36.964001" r="23.056" fill="#ffb6b6" id="circle48" /><path d="m 278.469,30.098 c -0.59,0.17 -9.25,1.3 -13,2 -3.68,0.69 -4.32,-4 -7.33,-3.12 a 0.127,0.127 0 0 0 -0.01,-0.06 28.344,28.344 0 0 0 -2.37,-7.17 21.178,21.178 0 0 1 0.17,6.6 0.984,0.984 0 0 1 -0.02,0.17 c -0.01,0.1 -0.03,0.19 -0.04,0.29 -3.18,-1.4 -5.2,-0.15 -7.4,0.29 -2.46,0.49 -4.38,1.57 -3,10 2.83,17.34 17.55,23.53 15,35 -0.5,2.27 -1.76,5.11 -3.34,5.82 a 28.344,28.344 0 0 0 -2.37,-7.17 21.178,21.178 0 0 1 0.17,6.6 c -2.45,-2.65 -4.22,-11.91 -12.46,-19.25 -2.03,-1.8 -12.2,-12.48 -13.42,-15 a 32.136,32.136 0 0 1 0.54,6.11 29.416,29.416 0 0 1 -0.28,4.1 1.151,1.151 0 0 1 -0.03,0.26 c -0.01,0.16 -0.04,0.3 -0.06,0.45 -0.02,0.17 -0.05,0.33 -0.08,0.5 -3.33,-0.48 -6.28,-1.06 -7.67,-2.42 -6.76,-6.58 1.49,-19.4 6,-31 6.45,-16.61 25.18,-18.82 27,-19 8.02,-0.81 21.57,0.91 26,10 3.1,6.37 1.12,15.1 -2,16 z" fill="#2f2e41" id="path49" style="fill:#ffffff" /><path d="m 229.854,33.847 16.7,-25.98 a 25.612,25.612 0 0 0 -13.187,-3.46 16.42,16.42 0 0 0 -12.11,5.711 c -3.41,4.24 -3.996,10.232 -2.718,15.521 0.442,1.827 8.846,-4.6 6.846,-1.6 -1.642,2.349 -4.326,12.221 -5,15 -1.083,4.472 -4.063,9.062 -1.409,12.82 3.139,4.445 8.74,6.654 14.177,6.878 5.437,0.224 10.787,-1.282 15.954,-2.988 z" fill="#2f2e41" id="path50" style="fill:#ffffff" /><path d="m 236.27,32.822 a 1,1 0 0 1 -0.272,-1.962 c 0.262,-0.432 0.155,-2.253 0.068,-3.724 -0.325,-5.524 -0.87,-14.77 8.106,-21.01 a 1.000041,1.000041 0 0 1 1.142,1.642 c -8.055,5.6 -7.571,13.815 -7.251,19.25 0.182,3.108 0.315,5.352 -1.57,5.78 a 0.994,0.994 0 0 1 -0.222,0.024 z" fill="#f79910" id="path51" /><path d="m 0,451.95 a 1.186,1.186 0 0 0 1.183,1.19 H 716.48 a 1.19,1.19 0 0 0 0,-2.38 H 1.19 A 1.186,1.186 0 0 0 0,451.945 Z" fill="#cccccc" id="path52" /><path d="m 442.535,94.85 h -15.132 a 1.5135,1.5135 0 0 1 0,-3.027 h 15.132 a 1.513,1.513 0 0 1 0,3.026 z m 27.237,0 H 454.64 a 1.5135,1.5135 0 1 1 0,-3.027 h 15.132 a 1.513,1.513 0 1 1 0,3.026 z m 13.619,12.105 H 468.26 a 1.513,1.513 0 1 1 0,-3.026 h 15.132 a 1.513,1.513 0 1 1 0,3.026 z m -27.154,0 h -28.834 a 1.513,1.513 0 0 1 0,-3.026 h 28.834 a 1.513,1.513 0 0 1 0,3.026 z M 510.713,94.85 h -28.835 a 1.5135,1.5135 0 0 1 0,-3.027 h 28.835 a 1.513,1.513 0 1 1 0,3.026 z M 452.895,71.925 H 424.06 a 1.513,1.513 0 1 1 0,-3.026 h 28.835 a 1.513,1.513 0 1 1 0,3.026 z m 2.37,8.841 a 1.355,1.355 0 0 1 -0.832,-2.425 l 7.383,-5.739 a 2.714,2.714 0 0 0 0.328,-3.984 l -6.198,-6.71 a 1.3551476,1.3551476 0 1 1 1.99,-1.84 l 9.205,9.965 a 1.355,1.355 0 0 1 -0.163,1.99 l -10.882,8.458 a 1.351,1.351 0 0 1 -0.83,0.285 z" fill="#f79910" id="path53" /><path d="m 422.601,80.766 a 1.355,1.355 0 0 0 0.832,-2.425 l -7.383,-5.739 a 2.714,2.714 0 0 1 -0.328,-3.984 l 6.199,-6.71 a 1.3551476,1.3551476 0 0 0 -1.99,-1.84 l -9.206,9.965 a 1.355,1.355 0 0 0 0.164,1.99 l 10.88,8.458 a 1.351,1.351 0 0 0 0.832,0.285 z m 45.199,52.14 h -28.834 a 1.5135,1.5135 0 0 1 0,-3.027 h 28.835 a 1.5135,1.5135 0 0 1 0,3.027 z m 5.082,7.485 a 1.355,1.355 0 0 1 -0.833,-2.425 l 7.384,-5.739 a 2.714,2.714 0 0 0 0.328,-3.984 l -6.199,-6.71 a 1.3551476,1.3551476 0 0 1 1.99,-1.84 l 9.206,9.965 a 1.355,1.355 0 0 1 -0.164,1.99 l -10.881,8.458 a 1.351,1.351 0 0 1 -0.831,0.285 z m -50.281,0 a 1.355,1.355 0 0 0 0.832,-2.425 l -7.383,-5.739 a 2.714,2.714 0 0 1 -0.328,-3.984 l 6.199,-6.71 a 1.3551476,1.3551476 0 1 0 -1.99,-1.84 l -9.206,9.965 a 1.355,1.355 0 0 0 0.164,1.99 l 10.88,8.458 a 1.351,1.351 0 0 0 0.832,0.285 z m 2.573,-4.24 6.061,-13.865 a 1.5131485,1.5131485 0 0 1 2.773,1.212 l -6.06,13.866 a 1.5138069,1.5138069 0 1 1 -2.774,-1.213 z" fill="#f79910" id="path54" /></g></g><style type="text/css" id="style3"> .st0{fill:#F79910;} </style></svg>