<svg width="280.34216" height="204.47504" viewBox="0 0 74.173863 54.100688" version="1.1" id="svg1" inkscape:version="1.3.2 (091e20ef0f, 2023-11-25)" sodipodi:docname="illustration2_dark.svg" xml:space="preserve" xmlns:inkscape="http://www.inkscape.org/namespaces/inkscape" xmlns:sodipodi="http://sodipodi.sourceforge.net/DTD/sodipodi-0.dtd" xmlns="http://www.w3.org/2000/svg" xmlns:svg="http://www.w3.org/2000/svg"><sodipodi:namedview id="namedview1" pagecolor="#505050" bordercolor="#eeeeee" borderopacity="1" inkscape:showpageshadow="0" inkscape:pageopacity="0" inkscape:pagecheckerboard="0" inkscape:deskcolor="#505050" inkscape:document-units="px" inkscape:zoom="0.58541666" inkscape:cx="144.34164" inkscape:cy="113.59431" inkscape:window-width="1920" inkscape:window-height="1011" inkscape:window-x="0" inkscape:window-y="0" inkscape:window-maximized="1" inkscape:current-layer="layer1" /><defs id="defs1"><rect x="203.51459" y="1150.095" width="367.98785" height="99.33934" id="rect47" /><rect x="203.51459" y="1150.095" width="433.75299" height="97.631157" id="rect48" /><rect x="203.51459" y="1150.095" width="382.71518" height="121.78854" id="rect49" /><rect x="203.51459" y="1150.095" width="433.75299" height="97.631157" id="rect50" /><rect x="203.51459" y="1150.095" width="433.75299" height="97.631157" id="rect51" /><rect x="203.51459" y="1150.095" width="385.43823" height="103.11166" id="rect52" /><rect x="203.51459" y="1150.095" width="433.75299" height="97.631157" id="rect58" /><rect x="203.51459" y="1150.095" width="553.33203" height="91.591812" id="rect59" /><rect x="203.51459" y="1150.095" width="433.75299" height="97.631157" id="rect60" /></defs><g inkscape:label="Layer 1" inkscape:groupmode="layer" id="layer1" transform="translate(-202.72158,-203.31192)"><g id="g45" transform="matrix(0.09178257,0,0,0.09178257,202.7215,203.31192)"><path d="m 787.33,526.157 c -2.712,-20.478 -15.576,-40.575 -35.178,-47.09 a 95.176,95.176 0 0 1 0.513,65.342 c -2.94,8.15 -7.058,16.908 -4.168,25.075 1.799,5.082 6.13,8.946 10.957,11.346 4.828,2.4 10.173,3.52 15.45,4.616 l 1.044,0.85 c 8.215,-18.954 14.093,-39.66 11.382,-60.139 z" fill="#f0f0f0" id="path1-1" /><path d="m 751.96,479.455 a 81.35,81.35 0 0 1 20.586,45.622 35.032,35.032 0 0 1 -0.311,10.972 20.092,20.092 0 0 1 -4.924,9.359 c -2.232,2.492 -4.805,4.783 -6.393,7.775 a 12.303,12.303 0 0 0 -0.521,10.048 c 1.455,4.07 4.285,7.373 7.166,10.508 3.198,3.481 6.575,7.046 7.96,11.683 0.167,0.562 1.03,0.268 0.862,-0.293 -2.409,-8.067 -10.295,-12.598 -14.096,-19.852 -1.774,-3.385 -2.538,-7.324 -0.93,-10.925 1.408,-3.148 4.059,-5.513 6.341,-8.017 a 21.44,21.44 0 0 0 5.155,-8.971 32.386,32.386 0 0 0 0.732,-10.92 78.924,78.924 0 0 0 -5.954,-23.938 82.792,82.792 0 0 0 -15.075,-23.738 c -0.393,-0.433 -0.987,0.257 -0.597,0.687 z" fill="#ffffff" id="path2-8" /><path d="m 772.258,519.57 a 12.205,12.205 0 0 0 9.188,-12.859 c -0.05,-0.583 -0.96,-0.531 -0.909,0.053 a 11.302,11.302 0 0 1 -8.572,11.944 c -0.569,0.14 -0.273,1.001 0.293,0.862 z m -3.648,24.723 a 23.524,23.524 0 0 1 -10.612,-13.465 c -0.17,-0.56 -1.032,-0.268 -0.862,0.293 a 24.469,24.469 0 0 0 11.07,13.988 c 0.508,0.296 0.908,-0.522 0.404,-0.816 z m -5.45,-49.633 a 6.909,6.909 0 0 1 -6.549,-0.28 c -0.503,-0.301 -0.903,0.517 -0.403,0.817 a 7.742,7.742 0 0 0 7.245,0.326 0.47,0.47 0 0 0 0.285,-0.577 0.458,0.458 0 0 0 -0.577,-0.285 z" fill="#ffffff" id="path3-3" /><path d="m 692.852,516.151 c 0.309,0.198 0.618,0.395 0.927,0.6 a 90.982,90.982 0 0 1 11.705,8.99 c 0.286,0.251 0.573,0.51 0.851,0.77 a 95.916,95.916 0 0 1 21.056,28.349 93.146,93.146 0 0 1 5.207,13.16 c 1.932,6.232 3.531,13.143 7.298,18.223 a 15.977,15.977 0 0 0 1.257,1.527 l 33.678,-0.267 c 0.076,-0.04 0.153,-0.07 0.23,-0.11 l 1.345,0.051 c -0.056,-0.237 -0.12,-0.483 -0.175,-0.72 -0.032,-0.139 -0.071,-0.277 -0.103,-0.415 -0.024,-0.092 -0.048,-0.184 -0.064,-0.268 a 1.274,1.274 0 0 0 -0.024,-0.084 c -0.016,-0.085 -0.04,-0.162 -0.055,-0.238 q -0.524,-2.06 -1.078,-4.118 c 0,-0.008 0,-0.008 -0.008,-0.015 a 136.96,136.96 0 0 0 -11.765,-30.168 c -0.156,-0.283 -0.312,-0.573 -0.483,-0.856 a 88.883,88.883 0 0 0 -8.08,-12.047 78.577,78.577 0 0 0 -5.28,-5.944 65.342,65.342 0 0 0 -16.447,-12.118 c -12.13,-6.282 -26.133,-8.615 -39.011,-4.617 -0.33,0.103 -0.652,0.205 -0.981,0.315 z" fill="#f0f0f0" id="path4-5" /><path d="m 692.931,516.578 a 81.35,81.35 0 0 1 43.904,24.033 35.032,35.032 0 0 1 6.357,8.948 20.092,20.092 0 0 1 1.703,10.436 c -0.282,3.335 -0.956,6.713 -0.423,10.057 a 12.303,12.303 0 0 0 5.633,8.337 c 3.612,2.373 7.862,3.307 12.049,4.076 4.649,0.854 9.492,1.667 13.389,4.536 0.472,0.347 0.984,-0.406 0.512,-0.753 -6.78,-4.991 -15.805,-3.861 -23.207,-7.364 -3.454,-1.635 -6.436,-4.32 -7.32,-8.164 -0.771,-3.36 -0.079,-6.845 0.236,-10.218 a 21.44,21.44 0 0 0 -1.285,-10.267 32.386,32.386 0 0 0 -5.99,-9.16 78.924,78.924 0 0 0 -19.166,-15.528 82.792,82.792 0 0 0 -26.33,-9.877 c -0.573,-0.11 -0.632,0.8 -0.062,0.908 z" fill="#ffffff" id="path5-9" /><path d="m 733.288,536.387 a 12.205,12.205 0 0 0 -0.404,-15.799 c -0.392,-0.435 -1.087,0.154 -0.695,0.59 a 11.302,11.302 0 0 1 0.347,14.697 c -0.37,0.454 0.385,0.964 0.752,0.512 z m 11.973,21.937 a 23.524,23.524 0 0 1 -16.58,-4.362 c -0.473,-0.346 -0.985,0.407 -0.512,0.752 a 24.469,24.469 0 0 0 17.262,4.504 c 0.583,-0.07 0.41,-0.964 -0.17,-0.894 z m -34.233,-36.348 a 6.909,6.909 0 0 1 -5.398,3.719 c -0.583,0.062 -0.41,0.956 0.17,0.894 a 7.742,7.742 0 0 0 5.981,-4.1 0.47,0.47 0 0 0 -0.12,-0.633 0.458,0.458 0 0 0 -0.633,0.12 z" fill="#ffffff" id="path6-2" /><path d="m 565.392,320.136 a 6.618,6.618 0 0 0 10.136,0.478 l 21.566,9.379 -2.1,-12.039 -20.158,-7.06 a 6.653,6.653 0 0 0 -9.444,9.242 z" fill="#a0616a" id="path7-8" /><path d="m 585.014,313.334 41.197,5.34 42.485,-25.593 a 18.784,18.784 0 0 1 26.807,8.35 18.804,18.804 0 0 1 -8.434,24.393 l -57.089,20.344 -0.107,0.038 -50.09,-22.312 z" fill="#3f3d56" id="path8-7" /><path fill="#a0616a" d="m 690.298,579.764 h -8.758 l -4.166,-33.78 12.926,10e-4 z" id="path9-6" /><path d="m 692.531,588.253 h -28.238 v -0.358 a 10.992,10.992 0 0 1 10.991,-10.99 h 10e-4 l 5.158,-3.914 9.624,3.914 h 2.465 z" fill="#2f2e41" id="path10-8" style="fill:#ffffff" /><path fill="#a0616a" d="m 656.36,574.245 -8.542,1.929 -11.505,-32.032 12.608,-2.847 z" id="path11-8" /><path d="m 660.409,582.034 -27.545,6.22 -0.079,-0.35 a 10.992,10.992 0 0 1 8.3,-13.141 h 10e-4 l 4.17,-4.954 10.25,1.698 2.404,-0.543 z m 40.981,-208.78 c 4.106,12.383 3.672,25.826 -0.987,40.253 l -1.992,81.228 c 0,0 2.968,53.268 -6.607,72.012 h -13.886 l -6.876,-76.877 -0.863,-51.6 -29.77,43.533 18.961,83.687 -17.09,1.528 -30.77,-90.82 37.963,-88.111 z" fill="#2f2e41" id="path12" style="fill:#ffffff" /><path d="m 645.176,385.226 3.425,-8.561 -2.265,-7.36 -0.516,-71.322 v -0.055 l 8.218,-13.103 0.066,-8.288 22.946,-0.56 2.489,6.32 4.924,2.944 a 35.646,35.646 0 0 1 17.307,31.18 l -0.89,48.12 2.29,4.581 a 9.638,9.638 0 0 1 -5.68,13.49 l -50.493,8.077 z" fill="#3f3d56" id="path13-2" /><circle cx="663.47601" cy="247.27" r="20.849001" fill="#a0616a" id="circle13" /><path d="m 685.186,251.815 c 0.622,-2.62 0.336,-6.306 -0.015,-8.944 a 25.035,25.035 0 0 0 -10.596,-17.383 7.633,7.633 0 0 0 -3.802,-1.511 3.282,3.282 0 0 0 -3.3,1.996 6.842,6.842 0 0 0 -3.86,-3.828 12.058,12.058 0 0 0 -5.495,-0.74 20.08,20.08 0 0 0 -16.752,11.975 c -0.557,1.323 -2.112,-3.564 -2.818,-2.314 a 5.557,5.557 0 0 1 -3.151,2.77 c -1.383,0.385 -1.944,6.081 -2.488,4.753 a 6.332,6.332 0 0 0 6.053,8.829 34.872,34.872 0 0 0 4.143,-0.793 10.33,10.33 0 0 1 11.31,7.73 13.685,13.685 0 0 1 1.8,-4.005 4.632,4.632 0 0 1 3.716,-2.042 5.204,5.204 0 0 1 3.576,2.056 c 0.918,1.077 1.607,2.335 2.532,3.407 2.713,3.145 6.382,10.48 10.248,9.945 3.052,-0.422 8.05,-8.324 8.9,-11.9 z" fill="#2f2e41" id="path14" style="fill:#ffffff" /><path d="m 585.754,375.47 a 6.618,6.618 0 0 0 9.075,-4.54 l 23.398,-2.363 -7.72,-9.474 -21.035,3.697 a 6.653,6.653 0 0 0 -3.718,12.68 z" fill="#a0616a" id="path15-1" /><path d="m 599.544,359.943 38.547,-15.487 24.544,-43.1 a 18.784,18.784 0 0 1 27.467,-5.824 18.804,18.804 0 0 1 4.571,25.401 l -39.85,45.662 -0.075,0.086 -54.603,5.031 z" fill="#3f3d56" id="path16" /><path d="M 806.959,589.444 H 458.97 a 1.1905,1.1905 0 1 1 0,-2.381 h 347.988 a 1.1905,1.1905 0 1 1 0,2.381 z" fill="#cccccc" id="path17-8" /><path d="m 582.066,395.8 h -158.14 a 4.161,4.161 0 0 1 -4.156,-4.156 v -64.166 a 4.161,4.161 0 0 1 4.157,-4.157 h 158.14 a 4.161,4.161 0 0 1 4.156,4.157 v 64.166 a 4.161,4.161 0 0 1 -4.157,4.157 z" fill="#f79910" id="path18" /><path d="M 567.009,426.582 H 438.985 a 4.988,4.988 0 1 1 0,-9.976 h 128.024 c 6.432,-0.09 6.496,10.066 0,9.976 z m 0,22.861 H 438.985 a 4.988,4.988 0 1 1 0,-9.976 h 128.024 c 6.432,-0.09 6.496,10.067 0,9.976 z m 0,22.862 H 438.985 a 4.988,4.988 0 1 1 0,-9.976 h 128.024 c 6.432,-0.09 6.496,10.066 0,9.976 z" fill="#e4e4e4" id="path19" /><path d="M 29.01,225.61 C 1.173,189.033 -10.041,137.136 10.68,96.106 A 211.783,211.783 0 0 0 112.353,200.05 c 17.422,8.253 37.658,15.618 45.905,33.043 5.132,10.843 4.356,23.737 0.5,35.095 -3.856,11.359 -10.536,21.51 -17.147,31.519 l -0.315,2.977 C 98.603,285.651 56.849,262.187 29.01,225.61 Z" fill="#f0f0f0" id="path20" /><path d="m 11.59,96.42 c 1.707,37.609 15.44,74.915 39.062,104.299 5.107,6.353 10.841,12.353 17.7,16.83 a 44.71,44.71 0 0 0 22.45,7.05 c 7.433,0.432 15.086,0.014 22.285,2.246 7.588,2.352 13.243,7.926 16.582,15.042 4.086,8.706 4.8,18.36 5.17,27.826 0.412,10.51 0.672,21.434 5.76,30.925 0.616,1.15 -1.204,2.039 -1.82,0.89 -8.851,-16.512 -3.51,-36.032 -8.887,-53.444 -2.509,-8.124 -7.481,-15.542 -15.668,-18.7 -7.16,-2.764 -15.052,-2.339 -22.582,-2.712 -7.907,-0.39 -15.312,-2.063 -22.207,-6.075 C 62.38,216.492 56.4,210.704 51.153,204.51 A 175.62,175.62 0 0 1 23.006,157.387 184.227,184.227 0 0 1 9.57,96.272 c -0.059,-1.3 1.962,-1.142 2.021,0.149 z" fill="#ffffff" id="path21-9" /><path d="M 42.47,191.573 A 27.158,27.158 0 0 1 7.798,185.688 c -0.835,-1 0.682,-2.345 1.518,-1.342 a 25.148,25.148 0 0 0 32.263,5.407 c 1.117,-0.67 2.002,1.152 0.89,1.82 z m 44.533,33.303 a 52.346,52.346 0 0 0 -4.367,-37.897 c -0.613,-1.152 1.208,-2.042 1.82,-0.891 a 54.447,54.447 0 0 1 4.464,39.445 c -0.337,1.261 -2.252,0.598 -1.917,-0.657 z M 17.76,137.988 a 15.373,15.373 0 0 0 9.899,-10.715 c 0.321,-1.265 2.236,-0.6 1.917,0.657 a 17.227,17.227 0 0 1 -10.924,11.878 1.047,1.047 0 0 1 -1.355,-0.464 1.018,1.018 0 0 1 0.464,-1.356 z" fill="#ffffff" id="path22" /><path d="m 162.445,61.637 c -0.178,0.795 -0.356,1.591 -0.522,2.4 a 202.453,202.453 0 0 0 -4.376,32.548 89.118,89.118 0 0 0 -0.137,2.55 213.43,213.43 0 0 0 11.227,77.773 207.267,207.267 0 0 0 12.422,28.938 c 6.725,12.868 15.04,26.284 17.061,40.211 a 35.555,35.555 0 0 1 0.41,4.382 l -53.576,52.4 c -0.181,0.057 -0.352,0.128 -0.534,0.186 l -2.043,2.19 c -0.285,-0.463 -0.57,-0.949 -0.855,-1.412 -0.166,-0.268 -0.32,-0.547 -0.487,-0.815 -0.107,-0.183 -0.213,-0.365 -0.32,-0.524 a 2.831,2.831 0 0 1 -0.095,-0.17 c -0.107,-0.158 -0.19,-0.317 -0.285,-0.463 q -2.403,-4.07 -4.758,-8.19 c -0.012,-0.012 -0.012,-0.012 -0.012,-0.036 -11.906,-20.953 -22.167,-43.085 -28.743,-66.07 -0.198,-0.691 -0.408,-1.395 -0.581,-2.11 a 197.78,197.78 0 0 1 -6.141,-31.686 174.848,174.848 0 0 1 -0.989,-17.664 145.397,145.397 0 0 1 6.956,-44.925 c 9.293,-28.94 27.738,-54.585 54.336,-68.472 0.68,-0.355 1.35,-0.699 2.042,-1.041 z" fill="#f0f0f0" id="path23-6" /><path d="m 162.99,62.434 c -21.28,31.055 -32.777,69.11 -31.607,106.794 0.253,8.147 1.22,16.39 4,24.094 a 44.71,44.71 0 0 0 13.68,19.145 c 5.675,4.821 12.038,9.095 16.442,15.211 4.642,6.447 5.801,14.302 4.183,21.994 -1.979,9.411 -7.221,17.55 -12.625,25.33 -6,8.64 -12.368,17.519 -14.02,28.16 -0.2,1.289 -2.19,0.903 -1.99,-0.384 2.875,-18.514 18.892,-30.884 25.082,-48.023 2.888,-7.998 3.384,-16.914 -1.25,-24.366 -4.054,-6.516 -10.611,-10.929 -16.4,-15.76 -6.077,-5.073 -10.982,-10.866 -14.073,-18.221 -3.16,-7.524 -4.45,-15.747 -4.911,-23.852 a 175.62,175.62 0 0 1 5.898,-54.57 184.227,184.227 0 0 1 26.067,-56.887 c 0.735,-1.073 2.254,0.27 1.524,1.335 z" fill="#ffffff" id="path24" /><path d="m 130.357,156.999 a 27.158,27.158 0 0 1 -24.14,-25.573 c -0.064,-1.302 1.956,-1.462 2.02,-0.158 a 25.148,25.148 0 0 0 22.504,23.742 c 1.296,0.137 0.905,2.125 -0.384,1.989 z m 15.507,53.403 a 52.346,52.346 0 0 0 19.329,-32.888 c 0.205,-1.289 2.194,-0.903 1.99,0.384 a 54.447,54.447 0 0 1 -20.184,34.182 c -1.03,0.805 -2.159,-0.878 -1.135,-1.678 z M 142.89,99.338 a 15.373,15.373 0 0 0 14.354,-2.596 c 1.018,-0.817 2.147,0.867 1.135,1.678 a 17.227,17.227 0 0 1 -15.873,2.908 1.047,1.047 0 0 1 -0.803,-1.187 1.018,1.018 0 0 1 1.187,-0.803 z" fill="#ffffff" id="path25" /><circle cx="176.735" cy="141.33701" r="22.445" fill="#2f2e41" id="circle25" /><path d="M 299.55,357.332 H 141.41 a 4.161,4.161 0 0 1 -4.157,-4.157 v -64.166 a 4.161,4.161 0 0 1 4.157,-4.157 h 158.14 a 4.161,4.161 0 0 1 4.156,4.157 v 64.166 a 4.161,4.161 0 0 1 -4.156,4.157 z" fill="#d1d3d4" id="path26" /><path d="M 284.492,388.113 H 156.468 a 4.988,4.988 0 0 1 0,-9.976 h 128.024 c 6.432,-0.09 6.497,10.066 0,9.976 z m 0,22.861 H 156.468 a 4.988,4.988 0 1 1 0,-9.976 h 128.024 c 6.432,-0.09 6.497,10.067 0,9.976 z m 0,22.861 H 156.468 a 4.988,4.988 0 0 1 0,-9.975 h 128.024 c 6.432,-0.09 6.497,10.066 0,9.975 z" fill="#e4e4e4" id="path27" /><path d="m 295.004,185.663 a 7.553,7.553 0 0 1 -11.506,1.317 l -56.036,23.92 1.474,-13.87 54.609,-21.172 a 7.594,7.594 0 0 1 11.459,9.805 z" fill="#ffb6b6" id="path28" /><path d="m 180.948,184.375 c 0,0 -6.928,6.729 -0.053,15.388 6.875,8.659 40.87,14.29 46.323,15.362 5.453,1.072 35.779,-19.557 35.779,-19.557 l 2.937,-14.946 -33.852,11.614 z" fill="#f79910" id="path29-8" /><path d="m 162.342,235.43 0.546,10.366 c 0,0 -1.61,9.182 -0.286,11.163 1.314,1.971 37.178,2.22 37.178,2.22 0,0 2.37,-12.774 4.411,-23.956 z m 103.115,137.052 7.498,-1.514 -2.146,-30.286 -11.066,2.236 z m 10.74,-39.412 6.97,-3.134 -9.042,-28.977 -10.288,4.627 z" fill="#ffb6b6" id="path30-9" /><path d="m 282.269,316.743 -13.125,7.432 -32.368,-52.013 c -22.723,15.308 -44.942,22.64 -67.342,26.551 -7.573,1.349 -15.294,0.665 -16.748,-7.043 q -0.102,-0.54 -0.163,-1.087 c -0.894,-8.42 9.579,-19.21 10.91,-29.512 l 28.663,-1.72 3.535,4.531 33.147,-20.38 a 14.23,14.23 0 0 1 19.583,4.952 q 0.33,0.541 0.61,1.11 z" fill="#2f2e41" id="path31" style="fill:#ffffff" /><path d="m 274.236,351.733 -15.018,1.395 -27.23,-55.689 c -27.002,4.644 -52.475,6.132 -74.51,0.514 a 14.242,14.242 0 0 1 -10.184,-17.205 q 0.128,-0.535 0.297,-1.058 c 2.637,-8.046 9.54,-13.739 14.978,-22.588 l 39.725,0.604 -4.437,15.309 38.59,-4.994 a 14.23,14.23 0 0 1 15.83,12.547 q 0.078,0.628 0.101,1.261 z" fill="#2f2e41" id="path32" style="fill:#ffffff" /><circle cx="177.853" cy="149.54601" r="16.129999" fill="#ffb6b6" id="circle32" /><path d="m 168.397,171.5 14.79,1.74 a 3.018,3.018 0 0 1 2.595,2.353 l 2.353,10.763 14.662,17.266 c 0,0 5.265,9.872 3.29,21.06 -1.975,11.188 -2.842,19.502 -2.842,19.502 0,0 -39.33,14.747 -40.647,12.773 -1.317,-1.974 -1.744,-10.943 -1.744,-10.943 l -5.265,-58.574 c 0,0 5.924,-9.872 9.214,-9.872 2.124,-0.072 1.852,-4.851 3.594,-6.068 z" fill="#f79910" id="path33" /><ellipse cx="203.645" cy="243.27901" rx="3.7550001" ry="4.506" fill="#f79910" id="ellipse33" /><path d="m 261.736,364.684 11.431,-5.729 2.154,5.027 14.455,2.922 a 3.416,3.416 0 0 1 0.67,6.487 l -13.967,5.987 -4.538,-3.94 1.191,5.375 -5.266,2.257 z m 11.189,-34.024 11.329,-5.93 2.242,4.988 14.505,2.667 a 3.416,3.416 0 0 1 0.783,6.475 l -13.86,6.232 -4.606,-3.86 1.285,5.353 -5.225,2.35 z M 168.637,144.486 A 20.642,20.642 0 0 1 156.73,140.73 l -0.116,-0.082 v -0.142 a 15.566,15.566 0 0 1 15.548,-15.547 h 6.546 a 15.566,15.566 0 0 1 15.548,15.547 3.62,3.62 0 0 1 -3.54,3.603 l -21.711,0.374 z" fill="#2f2e41" id="path34" style="fill:#ffffff" /><path d="m 233.564,269.96 a 7.553,7.553 0 0 1 -8.222,-8.157 l -53.702,-28.779 11.746,-7.52 50.666,29.382 a 7.594,7.594 0 0 1 -0.488,15.073 z" fill="#ffb6b6" id="path35" /><path d="m 163.26,180.138 c 0,0 -9.583,-1.2 -12.043,9.58 -2.46,10.78 14.4,40.832 16.973,45.757 2.573,4.925 37.633,15.696 37.633,15.696 l 13.5,-7.051 -30.229,-19.158 z" fill="#f79910" id="path36" /><path d="m 180.35,127.362 c 1.509,-1.85 0.329,-4.591 -0.909,-6.634 q -4.253,-7.019 -8.93,-13.77 c -3.895,-5.624 -8.615,-11.503 -15.322,-12.852 -6.117,-1.23 -12.28,1.678 -17.542,5.03 -5.174,3.295 -10.27,7.446 -12.239,13.256 -1.884,5.56 -0.56,11.734 1.784,17.116 2.008,4.609 4.71,10.12 1.846,14.253 a 11.057,11.057 0 0 1 -5.296,3.605 37.833,37.833 0 0 1 -16.63,2.453 c 7.767,-0.083 14.566,7.892 22.096,5.984 4.27,-1.082 7.113,-5.062 9.16,-8.963 a 25.11,25.11 0 0 0 2.989,-8.466 c 0.497,-4.04 -0.579,-8.292 0.78,-12.13 1.414,-3.993 5.172,-6.665 8.966,-8.552 2.518,-1.252 5.264,-2.298 8.07,-2.086 7.95,0.602 12.069,10.388 19.613,12.969" fill="#2f2e41" id="path37" style="fill:#ffffff" /><path d="m 450.589,181.98 h -158.14 a 4.161,4.161 0 0 1 -4.157,-4.157 v -64.167 a 4.161,4.161 0 0 1 4.157,-4.156 h 158.14 a 4.161,4.161 0 0 1 4.156,4.156 v 64.167 a 4.161,4.161 0 0 1 -4.156,4.156 z" fill="#f79910" id="path38" /><path d="M 435.531,212.76 H 307.507 a 4.988,4.988 0 0 1 0,-9.976 h 128.024 c 6.433,-0.09 6.497,10.067 0,9.976 z m 0,22.862 H 307.507 a 4.988,4.988 0 1 1 0,-9.976 h 128.024 c 6.433,-0.09 6.497,10.066 0,9.976 z m 0,22.861 H 307.507 a 4.988,4.988 0 0 1 0,-9.976 h 128.024 c 6.433,-0.09 6.497,10.067 0,9.976 z" fill="#e4e4e4" id="path39" /><path d="M 619.342,23.389 H 89.6 A 2.97,2.97 0 0 1 86.633,20.421 V 2.967 A 2.97,2.97 0 0 1 89.6,0 h 529.742 a 2.97,2.97 0 0 1 2.967,2.967 v 17.454 a 2.97,2.97 0 0 1 -2.967,2.968 z" fill="#e6e7e8" id="path40" /><circle data-name="Ellipse 90" cx="103.853" cy="10.843" r="4.2129998" fill="#ffffff" id="circle40" /><circle data-name="Ellipse 91" cx="119.843" cy="10.843" r="4.2129998" fill="#ffffff" id="circle41" /><circle data-name="Ellipse 92" cx="135.834" cy="10.843" r="4.2129998" fill="#ffffff" id="circle42" /><path d="M 603.675,7.943 H 585.26 a 1.364,1.364 0 0 1 0,-2.727 h 18.414 a 1.364,1.364 0 0 1 0,2.727 z m 0,5.115 H 585.26 a 1.364,1.364 0 0 1 0,-2.728 h 18.414 a 1.364,1.364 0 1 1 0,2.728 z m 0,5.115 H 585.26 a 1.364,1.364 0 1 1 0,-2.728 h 18.414 a 1.364,1.364 0 1 1 0,2.728 z" fill="#ffffff" id="path42-8" /></g></g><style type="text/css" id="style3"> 	.st0{fill:#F79910;} </style></svg>