<?xml version="1.0" encoding="UTF-8" standalone="no"?>
<svg
   stroke="currentColor"
   fill="currentColor"
   stroke-width="0"
   viewBox="0 0 256 256"
   height="200px"
   width="200px"
   version="1.1"
   id="svg1"
   sodipodi:docname="octocat.svg"
   inkscape:version="1.3.2 (091e20ef0f, 2023-11-25)"
   xmlns:inkscape="http://www.inkscape.org/namespaces/inkscape"
   xmlns:sodipodi="http://sodipodi.sourceforge.net/DTD/sodipodi-0.dtd"
   xmlns="http://www.w3.org/2000/svg"
   xmlns:svg="http://www.w3.org/2000/svg">
  <defs
     id="defs1" />
  <sodipodi:namedview
     id="namedview1"
     pagecolor="#ffffff"
     bordercolor="#000000"
     borderopacity="0.25"
     inkscape:showpageshadow="2"
     inkscape:pageopacity="0.0"
     inkscape:pagecheckerboard="0"
     inkscape:deskcolor="#d1d1d1"
     inkscape:zoom="4.025"
     inkscape:cx="100"
     inkscape:cy="100"
     inkscape:window-width="1920"
     inkscape:window-height="1043"
     inkscape:window-x="0"
     inkscape:window-y="0"
     inkscape:window-maximized="1"
     inkscape:current-layer="svg1" />
  <path
     d="M216,104v8a56.06,56.06,0,0,1-48.44,55.47A39.8,39.8,0,0,1,176,192v40a8,8,0,0,1-8,8H104a8,8,0,0,1-8-8V216H72a40,40,0,0,1-40-40A24,24,0,0,0,8,152a8,8,0,0,1,0-16,40,40,0,0,1,40,40,24,24,0,0,0,24,24H96v-8a39.8,39.8,0,0,1,8.44-24.53A56.06,56.06,0,0,1,56,112v-8a58.14,58.14,0,0,1,7.69-28.32A59.78,59.78,0,0,1,69.07,28,8,8,0,0,1,76,24a59.75,59.75,0,0,1,48,24h24a59.75,59.75,0,0,1,48-24,8,8,0,0,1,6.93,4,59.74,59.74,0,0,1,5.37,47.68A58,58,0,0,1,216,104Z"
     id="path1"
     style="fill:#f79910;fill-opacity:1" />
</svg>
