<?xml version="1.0" encoding="UTF-8" standalone="no"?>
<!-- Created with Inkscape (http://www.inkscape.org/) -->

<svg
   width="70.964973"
   height="83.973343"
   viewBox="0 0 18.776149 22.217948"
   version="1.1"
   id="svg1"
   inkscape:version="1.3.2 (091e20ef0f, 2023-11-25)"
   sodipodi:docname="stack_overflow.svg"
   xml:space="preserve"
   xmlns:inkscape="http://www.inkscape.org/namespaces/inkscape"
   xmlns:sodipodi="http://sodipodi.sourceforge.net/DTD/sodipodi-0.dtd"
   xmlns="http://www.w3.org/2000/svg"
   xmlns:svg="http://www.w3.org/2000/svg"><sodipodi:namedview
     id="namedview1"
     pagecolor="#505050"
     bordercolor="#eeeeee"
     borderopacity="1"
     inkscape:showpageshadow="0"
     inkscape:pageopacity="0"
     inkscape:pagecheckerboard="0"
     inkscape:deskcolor="#505050"
     inkscape:document-units="px"
     inkscape:zoom="0.20697604"
     inkscape:cx="-2582.4245"
     inkscape:cy="128.03414"
     inkscape:window-width="1920"
     inkscape:window-height="1011"
     inkscape:window-x="0"
     inkscape:window-y="0"
     inkscape:window-maximized="1"
     inkscape:current-layer="layer1" /><defs
     id="defs1"><rect
       x="203.51459"
       y="1150.095"
       width="367.98785"
       height="99.33934"
       id="rect47" /><rect
       x="203.51459"
       y="1150.095"
       width="433.75299"
       height="97.631157"
       id="rect48" /><rect
       x="203.51459"
       y="1150.095"
       width="382.71518"
       height="121.78854"
       id="rect49" /><rect
       x="203.51459"
       y="1150.095"
       width="433.75299"
       height="97.631157"
       id="rect50" /><rect
       x="203.51459"
       y="1150.095"
       width="433.75299"
       height="97.631157"
       id="rect51" /><rect
       x="203.51459"
       y="1150.095"
       width="385.43823"
       height="103.11166"
       id="rect52" /><rect
       x="203.51459"
       y="1150.095"
       width="433.75299"
       height="97.631157"
       id="rect58" /><rect
       x="203.51459"
       y="1150.095"
       width="553.33203"
       height="91.591812"
       id="rect59" /><rect
       x="203.51459"
       y="1150.095"
       width="433.75299"
       height="97.631157"
       id="rect60" /></defs><g
     inkscape:label="Layer 1"
     inkscape:groupmode="layer"
     id="layer1"
     transform="translate(-355.38905,-87.082099)"><g
       style="fill:#f79910;fill-opacity:1;stroke:currentColor;stroke-width:0"
       id="g37"
       transform="matrix(0.04959363,0,0,0.04959363,355.25515,85.495103)"><path
         d="M 290.7,311 95,269.7 86.8,309 282.5,350 Z m 51,-87 L 188.2,95.7 162.7,126.5 316.2,254.8 Z M 310.5,263.7 129.2,179 112.5,215.5 293.7,300 Z M 262,32 l -32,24 119.3,160.3 32,-24 z m 20.5,328 h -200 v 39.7 h 200 z m 39.7,80 H 42.7 V 320 H 2.7 V 480 H 362.2 V 320 h -40 z"
         id="path1-5"
         style="fill:#f79910;fill-opacity:1" /></g></g><style
     type="text/css"
     id="style3">
	.st0{fill:#F79910;}
</style></svg>
