<?xml version="1.0" encoding="iso-8859-1"?>
<!-- Uploaded to: SVG Repo, www.svgrepo.com, Generator: SVG Repo Mixer Tools -->
<svg fill="#000000" height="800px" width="800px" version="1.1" id="Layer_1" xmlns="http://www.w3.org/2000/svg" xmlns:xlink="http://www.w3.org/1999/xlink" 
	 viewBox="0 0 512 512" xml:space="preserve">
<g>
	<g>
		<path d="M418.472,17.102H204.159v-0.534C204.159,7.432,196.727,0,187.591,0h-34.205c-9.136,0-16.568,7.432-16.568,16.568v0.534
			h-43.29c-13.851,0-25.119,11.268-25.119,25.119v444.66c0,13.851,11.268,25.119,25.119,25.119h324.944
			c13.851,0,25.119-11.268,25.119-25.119V42.221C443.591,28.371,432.323,17.102,418.472,17.102z M152.852,16.568
			c0-0.295,0.239-0.534,0.534-0.534h34.205c0.295,0,0.534,0.239,0.534,0.534v79.083l-13.19-8.794
			c-1.347-0.898-2.897-1.347-4.447-1.347c-1.55,0-3.1,0.449-4.447,1.347l-13.19,8.794V16.568z M102.614,495.967h-9.086
			c-5.01,0-9.086-4.076-9.086-9.086V42.221c0-5.01,4.076-9.086,9.086-9.086h9.086V495.967z M427.558,486.881h-0.001
			c0,5.01-4.076,9.086-9.086,9.086H118.647V33.136h18.171v77.495c0,2.957,1.627,5.674,4.234,7.069
			c2.607,1.395,5.77,1.243,8.229-0.399l21.207-14.138l21.207,14.138c1.341,0.895,2.892,1.347,4.448,1.347
			c1.297,0,2.597-0.314,3.783-0.948c2.606-1.395,4.234-4.112,4.234-7.069V33.136h214.313c5.01,0,9.086,4.076,9.086,9.086V486.881z"
			/>
	</g>
</g>
<g>
	<g>
		<path d="M375.716,136.818H256c-9.136,0-16.568,7.432-16.568,16.568v77.495h-77.495c-9.136,0-16.568,7.432-16.568,16.568v119.716
			c0,9.136,7.432,16.568,16.568,16.568h213.779c9.136,0,16.568-7.432,16.568-16.568V153.386
			C392.284,144.25,384.852,136.818,375.716,136.818z M376.251,367.165c0,0.295-0.239,0.534-0.534,0.534H161.937
			c-0.295,0-0.534-0.239-0.534-0.534V247.449c0-0.295,0.239-0.534,0.534-0.534h85.511c4.427,0,8.017-3.589,8.017-8.017v-85.511
			c0-0.295,0.239-0.534,0.534-0.534h119.716c0.295,0,0.534,0.239,0.534,0.534V367.165z"/>
	</g>
</g>
<g>
	<g>
		<path d="M315.858,222.33c-4.427,0-8.017,3.589-8.017,8.017v68.944h-59.568l3.624-2.416c3.684-2.455,4.68-7.433,2.223-11.117
			s-7.434-4.679-11.116-2.223l-25.653,17.102c-2.23,1.487-3.57,3.989-3.57,6.67s1.339,5.184,3.57,6.67l25.653,17.102
			c1.367,0.912,2.912,1.348,4.439,1.348c2.59,0,5.133-1.254,6.677-3.571c2.456-3.683,1.461-8.661-2.223-11.117l-3.624-2.416h67.585
			c4.427,0,8.017-3.589,8.017-8.017v-76.96C323.875,225.919,320.285,222.33,315.858,222.33z"/>
	</g>
</g>
</svg>